<?xml version="1.0" encoding="UTF-8"?><!DOCTYPE svg PUBLIC "-//W3C//DTD SVG 1.1//EN" "http://www.w3.org/Graphics/SVG/1.1/DTD/svg11.dtd"><svg xmlns="http://www.w3.org/2000/svg"><defs><style>.a{fill-rule:evenodd}</style></defs><symbol id="edit" viewBox="0 0 16 15"><title>edit</title><path d="M10.992 10.184l.875-.875c.073-.073.155-.092.246-.055.091.036.137.11.137.219v3.964c0 .365-.128.675-.383.93a1.266 1.266 0 0 1-.93.383H1.312a1.27 1.27 0 0 1-.93-.383 1.266 1.266 0 0 1-.382-.93V3.813c0-.365.128-.675.383-.93s.565-.383.93-.383h7.492c.09 0 .155.046.191.137.037.09.018.173-.055.246l-.875.875a.185.185 0 0 1-.136.055H1.312v9.624h9.625V10.32c0-.054.019-.1.055-.136zm4.293-5.524l-7.191 7.192-2.461.273a1.099 1.099 0 0 1-.93-.328 1.099 1.099 0 0 1-.328-.93l.273-2.46 7.192-7.192c.31-.31.688-.465 1.135-.465.446 0 .824.155 1.134.465l1.176 1.176c.31.31.465.688.465 1.134 0 .447-.155.825-.465 1.135zm-2.707.848l-1.586-1.586-5.086 5.086-.191 1.777 1.777-.191 5.086-5.086zm1.777-2.188L13.18 2.145a.278.278 0 0 0-.205-.082.278.278 0 0 0-.205.082l-.848.847 1.586 1.586.847-.848a.278.278 0 0 0 .082-.205.278.278 0 0 0-.082-.205z" fill-rule="evenodd"/></symbol><symbol id="example" viewBox="0 0 30 32"><path d="M29.714 11.554q0 .393-.464.857l-6.482 6.321 1.536 8.929q.018.125.018.357 0 .375-.188.634t-.545.259q-.339 0-.714-.214l-8.018-4.214-8.018 4.214q-.393.214-.714.214-.375 0-.563-.259t-.188-.634q0-.107.036-.357l1.536-8.929-6.5-6.321Q0 11.929 0 11.554q0-.661 1-.821l8.964-1.304 4.018-8.125q.339-.732.875-.732t.875.732l4.018 8.125 8.964 1.304q1 .161 1 .821z"/></symbol><symbol id="twitter" viewBox="0 0 80 80"><title>twitter</title><path d="M30.53 63.86a31.29 31.29 0 0 1-17.81-5.44A3.09 3.09 0 0 1 15 52.89a19.06 19.06 0 0 0 2.54.17 15.84 15.84 0 0 0 4.91-.75 15 15 0 0 1-5.3-6.73 3 3 0 0 1 0-2.18 14.76 14.76 0 0 1-3.78-9.4 3.07 3.07 0 0 1 1.06-2.33 13.72 13.72 0 0 1 .81-12.23 3.09 3.09 0 0 1 5-.22c4.86 5.93 11.68 8.39 15.9 9.39a14.91 14.91 0 0 1 1.15-4.62 12.4 12.4 0 0 1 7.4-6.83 15.51 15.51 0 0 1 5.28-1A13.05 13.05 0 0 1 58.13 19a21.79 21.79 0 0 0 3.94-1.79 3.1 3.1 0 0 1 4.67 3.22q-.07.39-.19.77a3.1 3.1 0 0 1 1.64 4.19c-.84 1.75-3 3.88-4.88 5.54-.5 16.26-10.63 28.84-26 32.18a31.7 31.7 0 0 1-6.78.75zM18.29 57a28.42 28.42 0 0 0 12.25 2.81 27.71 27.71 0 0 0 5.93-.64c13.78-3 22.76-14.46 22.88-29.22v-.92l.7-.59c1-.84 1.89-1.67 2.62-2.42l-5.18 1.56 3.81-4.93a10.77 10.77 0 0 0 .62-.89 24.92 24.92 0 0 1-3.74 1.38l-1.12.31-.82-.81a9 9 0 0 0-6.3-2.53 11.54 11.54 0 0 0-3.92.73 8.5 8.5 0 0 0-5.09 4.66 11.45 11.45 0 0 0-.84 5.29l.23 2.56-2.54-.35c-3.78-.6-13-2.79-19.76-10.22a9.44 9.44 0 0 0 1.32 9.39l4.44 5.92-6.24-2.64a9.92 9.92 0 0 0 3.94 6.39l5.26 3.64h-5.2a9.87 9.87 0 0 0 6.07 4.83l4.31 1.06-3.65 2.53a18.43 18.43 0 0 1-9.98 3.1zm-3.81-.2zm.66-1.62zm5.8-11zm-4.85-9.38zm49.75-9.93l-.09.05h.09zM17.11 21.7zm47.06-1.07h-.06.06z"/></symbol><symbol id="license-plate-dutch-country-code" viewBox="0 0 23 43"><title>license plate dutch country code</title><path d="M11.5 2.3l-.9.5.2-1-.7-.8 1-.1.4-.9.4.9 1 .1-.7.7.2 1m4.1.6l-.9.5.2-1-.7-.8 1-.1.4-.9.4.9 1 .1-.7.7.2 1m3.1 3.6l-.9.5.2-1-.7-.8 1-.1.4-.9.4.9 1 .1-.7.7.2 1m.1 4.6l-.9.5.2-1-.7-.8 1-.1.4-.9.4.9 1 .1-.7.7.2 1m-1.9 4.6l-.9.5.2-1-.7-.8 1-.1.4-.9.4.9 1 .1-.7.7.2 1m-4.9 2.6l-.9.5.2-1-.7-.8 1-.1.4-.9.4.9 1 .1-.7.7.2 1M6.5 3.3l-.9.4.2-1-.7-.7 1-.1.4-.9.4.9 1 .1-.7.7.2 1M2.5 7.3l-.9.4.2-1-.7-.7 1-.1.4-.9.4.9 1 .1-.7.7.2 1m-1.9 4.6l-.9.5.2-1-.7-.8 1-.1.4-.9.4.9 1 .1-.7.7.2 1m.1 4.6l-.9.5.2-1-.7-.8 1-.1.4-.9.4.9 1 .1-.7.7.2 1m3.1 2.6l-.9.5.2-1-.7-.8 1-.1.4-.9.4.9 1 .1-.7.7.2 1m4.1.6l-.9.5.2-1-.7-.8 1-.1.4-.9.4.9 1 .1-.7.7.2 1"/><path d="M1.6 42.7V29.8h1.7l6.8 10.1V29.8h1.6v12.9H10L3.3 32.5v10.1H1.6zm13 0V29.8h1.7v11.4h6.3v1.5h-8z" fill="currentColor"/></symbol><symbol id="abroad" viewBox="0 0 80 78"><title>Artboard</title><path d="M69.19 14.916H54.73v-3.504C54.73 7.37 51.35 4 47.297 4H32.703c-4.054 0-7.433 3.37-7.433 7.412v3.504H10.81C5.27 14.916.677 19.498.677 25.023v37.735c0 5.525 4.594 10.107 10.135 10.107H69.19c5.54 0 10.135-4.582 10.135-10.107V25.023c0-5.525-4.594-10.107-10.135-10.107zM32.702 8.043h14.594c1.892 0 3.379 1.482 3.379 3.37v3.503H29.324v-3.504c0-1.752 1.487-3.369 3.379-3.369zm23.162 12.685v46.327H24.132V20.728h31.733zm11.544 46.46H59.03V20.861h8.378c3.379 0 6.082 2.504 6.082 5.634v35.059c0 3.005-2.703 5.634-6.082 5.634zm-54.82-46.46h8.378v46.328h-8.378c-3.379 0-6.081-2.505-6.081-5.635V26.363c0-3.13 2.702-5.635 6.08-5.635z"/></symbol><symbol id="acceleration" viewBox="0 0 80 80"><title>acceleration</title><path d="M22 52h-8a.75.75 0 0 1 0-1.5h8a.75.75 0 0 1 0 1.5zm-2-9H8a.75.75 0 0 1 0-1.5h12a.75.75 0 0 1 0 1.5zm-1-9H3a.75.75 0 0 1 0-1.5h16a.75.75 0 0 1 0 1.5zm34.2-7.3a.75.75 0 0 0-1-.09l-10.02 7.08A7 7 0 1 0 46 37.31l7.24-9.64a.75.75 0 0 0-.04-.97zM39.67 43.22a3 3 0 1 1 3-3 3 3 0 0 1-3 3z"/><path d="M62 21.47l2.28-2.28a1.5 1.5 0 0 0 0-2.12l-1.41-1.41a1.5 1.5 0 0 0-2.12 0l-2.26 2.26-.67-.57a28.88 28.88 0 0 0-15.58-6.27V8.22h4.5a1.5 1.5 0 0 0 1.5-1.5v-1a1.5 1.5 0 0 0-1.5-1.5h-14a1.5 1.5 0 0 0-1.5 1.5v1a1.5 1.5 0 0 0 1.5 1.5h4.5v2.84A29 29 0 0 0 16.92 21.8 2 2 0 0 0 20 24.31a25 25 0 1 1 3.85 35.22 2 2 0 0 0-2.5 3.12A28.74 28.74 0 0 0 39.46 69a29.88 29.88 0 0 0 3.25-.18A29 29 0 0 0 62 21.47z"/></symbol><symbol id="airco-maintenance" viewBox="0 0 80 80"><title>airco-maintenance</title><path d="M66.17 42.51L54 45.77 44 40l10-5.77 12.18 3.26a2 2 0 0 0 1-3.86l-8.29-2.23 6.79-3.92a2 2 0 1 0-2-3.46l-6.79 3.92 2.23-8.31a2 2 0 1 0-3.86-1L52 30.76l-10 5.78V25l8.91-8.91a2 2 0 1 0-2.83-2.83L42 19.34V11.5a2 2 0 0 0-4 0v7.84l-6.09-6.09a2 2 0 1 0-2.83 2.83L38 25v11.54l-10-5.78-3.26-12.17a2 2 0 0 0-3.86 1l2.23 8.31-6.79-3.9a2 2 0 1 0-2 3.46l6.79 3.92-8.31 2.23a2 2 0 1 0 1 3.86L26 34.23 36 40l-10 5.77-12.17-3.26a2 2 0 1 0-1 3.86l8.31 2.23-6.79 3.92a2 2 0 0 0 2 3.46l6.79-3.92-2.23 8.31a2 2 0 1 0 3.86 1L28 49.24l10-5.77V55l-8.91 8.91a2 2 0 0 0 2.83 2.83L38 60.66v7.84a2 2 0 0 0 4 0v-7.84l6.09 6.09a2 2 0 0 0 2.83-2.83L42 55V43.46l10 5.77 3.26 12.18a2 2 0 0 0 3.86-1l-2.23-8.31 6.79 3.9a2 2 0 1 0 2-3.46l-6.79-3.94 8.31-2.23a2 2 0 0 0-1-3.86z"/></symbol><symbol id="alert" viewBox="0 0 80 80"><title>alert</title><path d="M40.19 57.36a3.57 3.57 0 1 0 3.57 3.57 3.57 3.57 0 0 0-3.57-3.57zm.34-3.64h-1.34A1.78 1.78 0 0 1 37.41 52l-1-20.91a1.78 1.78 0 0 1 1.78-1.86h3.41a1.78 1.78 0 0 1 1.78 1.86L42.31 52a1.78 1.78 0 0 1-1.78 1.72z"/><path d="M39.93 10.5a.3.3 0 0 1 .3.15L73.9 69.13a.18.18 0 0 1 0 .21.31.31 0 0 1-.3.16H6.27a.31.31 0 0 1-.3-.16.18.18 0 0 1 0-.21l33.67-58.48a.3.3 0 0 1 .3-.15m0-4a4.3 4.3 0 0 0-3.76 2.16L2.5 67.14a4.26 4.26 0 0 0 3.77 6.36H73.6a4.26 4.26 0 0 0 3.76-6.36L43.7 8.66a4.3 4.3 0 0 0-3.77-2.16z"/></symbol><symbol id="back-to-top" viewBox="0 0 80 80"><title>back-to-top</title><path d="M68.38 40.8l-26.22-25a3.5 3.5 0 0 0-4.93 0L11.6 40.82a2 2 0 0 0 2.8 2.86L38 20.6V68a2 2 0 0 0 4 0V21.15L65.62 43.7a2 2 0 0 0 2.76-2.89zM76 6.25H4a2 2 0 0 1 0-4h72a2 2 0 0 1 0 4z"/></symbol><symbol id="brochure" viewBox="0 0 80 80"><title>brochure</title><path d="M75.47 2.73a3.47 3.47 0 0 0-3-.61L40 10.74 7.56 2.12a3.5 3.5 0 0 0-4.4 3.38v60.22a3.5 3.5 0 0 0 2.6 3.38l33.73 9a2 2 0 0 0 1 0l33.73-9a3.5 3.5 0 0 0 2.6-3.38V5.5a3.48 3.48 0 0 0-1.35-2.77zM7.16 6.15L38 14.35v59.18L7.16 65.34zm65.68 59.19L42 73.53V14.35l30.84-8.2z"/><path d="M48.92 32.83a.75.75 0 0 1-.21-1.47l18.15-5.18a.75.75 0 1 1 .41 1.44L49.12 32.8a.72.72 0 0 1-.2.03zm0 11.66a.75.75 0 0 1-.21-1.49l18.15-5.18a.75.75 0 1 1 .41 1.44l-18.15 5.2a.72.72 0 0 1-.2.03zm0 11.67a.75.75 0 0 1-.21-1.47l18.15-5.19a.75.75 0 1 1 .41 1.44l-18.15 5.19a.72.72 0 0 1-.2.03zm-17.5-23.33a.72.72 0 0 1-.21 0l-18.14-5.22a.75.75 0 1 1 .41-1.44l18.15 5.18a.75.75 0 0 1-.21 1.47zm0 11.66a.72.72 0 0 1-.21 0l-18.14-5.21a.75.75 0 1 1 .41-1.44L31.63 43a.75.75 0 0 1-.21 1.47zm0 11.67a.72.72 0 0 1-.21 0l-18.14-5.22a.75.75 0 1 1 .41-1.44l18.15 5.18a.75.75 0 0 1-.21 1.47z"/></symbol><symbol id="calendar-small" viewBox="0 0 80 80"><title>calendar-small</title><path d="M57.73 16.72h-1.06v-4a2 2 0 1 0-4 0v4h-25v-4a2 2 0 1 0-4 0v4h-1.06a11 11 0 0 0-10.94 10.94v30.11a11 11 0 0 0 10.94 10.95h35.12a11 11 0 0 0 10.94-10.95V27.66a11 11 0 0 0-10.94-10.94zm-7.73 17h14.67v15H50V33.94a.73.73 0 0 0 0-.22zM32 50.19h16.51v14.53H32zm16.54-1.5H32V33.94a.73.73 0 0 0 0-.22h16.55a.73.73 0 0 0 0 .22zm-32.84-21a7 7 0 0 1 6.94-6.94h1.06v4a2 2 0 0 0 4 0v-4h25v4a2 2 0 0 0 4 0v-4h1.06a7 7 0 0 1 6.94 6.94v2.06h-49zm14.8 6.06a.73.73 0 0 0 0 .23v14.75H15.67v-15zM15.67 57.77v-7.58h14.8v14.52h-7.86a7 7 0 0 1-6.94-6.94zm42.06 6.94H50V50.19h14.67v7.58a7 7 0 0 1-6.94 6.95z"/></symbol><symbol id="calendar" viewBox="0 0 80 80"><title>calendar</title><path d="M68 8.1h-6.49V3.46a2 2 0 1 0-4 0V8.1H22.84V3.46a2 2 0 1 0-4 0V8.1H12a10 10 0 0 0-10 10v50a10 10 0 0 0 10 10h56a10 10 0 0 0 10-10v-50a10 10 0 0 0-10-10zM28.92 52.74h22.36V74.1H29zm0-1.5V30.57h22.36v20.67zm23.86-20.67H74v20.67H52.78zM6 18.1a6 6 0 0 1 6-6h6.84v5.36a2 2 0 1 0 4 0V12.1h34.67v5.36a2 2 0 0 0 4 0V12.1H68a6 6 0 0 1 6 6v8.46H6zm21.37 12.47v20.67H6V30.57zM6 68.1V52.74h21.42l.05 21.36H12a6 6 0 0 1-6-6zm62 6H52.78V52.74H74V68.1a6 6 0 0 1-6 6z"/></symbol><symbol id="chat" viewBox="0 0 80 80"><title>chat</title><path d="M38.31 42.75a2.66 2.66 0 1 1-2.66 2.66 2.66 2.66 0 0 1 2.66-2.66m0-1.5a4.16 4.16 0 1 0 4.16 4.16 4.16 4.16 0 0 0-4.16-4.16zm12.48 1.5a2.66 2.66 0 1 1-2.66 2.66 2.66 2.66 0 0 1 2.66-2.66m0-1.5a4.16 4.16 0 1 0 4.16 4.16 4.16 4.16 0 0 0-4.16-4.16zm12.48 1.5a2.66 2.66 0 1 1-2.66 2.66 2.66 2.66 0 0 1 2.66-2.66m0-1.5a4.16 4.16 0 1 0 4.16 4.16 4.16 4.16 0 0 0-4.16-4.16z"/><path d="M73.92 26H27.68a4.08 4.08 0 0 0-4.08 4.08V43h-2.07L13 48.36V43H5.65a.09.09 0 0 1-.08-.08V12.47a.09.09 0 0 1 .08-.08h46.27a.09.09 0 0 1 .08.08V26h4V12.47a4.08 4.08 0 0 0-4.08-4.08H5.65a4.08 4.08 0 0 0-4.08 4.08V42.9A4.08 4.08 0 0 0 5.65 47H9v8.63L22.68 47h.9v13.53a4.08 4.08 0 0 0 4.08 4.08h20.91l13.67 8.63v-8.63h11.68A4.08 4.08 0 0 0 78 60.53V30.09A4.08 4.08 0 0 0 73.92 26zM74 60.53a.09.09 0 0 1-.08.08H58.24V66l-8.52-5.38H27.65a.09.09 0 0 1-.08-.08V30.13a.09.09 0 0 1 .08-.08h46.24a.09.09 0 0 1 .08.08z"/></symbol><symbol id="check-bold" viewBox="0 0 80 80"><title>check-bold</title><path d="M26.56 75.19h-.12A5.51 5.51 0 0 1 22 72.81L3 45.24a4 4 0 1 1 6.6-4.54l17 24.73 44.78-59a4 4 0 0 1 6.37 4.83L30.94 73a5.52 5.52 0 0 1-4.38 2.19z"/></symbol><symbol id="check-oval" viewBox="0 0 80 80"><title>iPhone 7</title><g transform="translate(1 1)" fill="none" fill-rule="evenodd"><circle stroke="#000" stroke-width="4.558" cx="39.5" cy="39.5" r="37.221"/><path d="M36.232 53.725h-.053a2.416 2.416 0 0 1-1.923-1.027l-8.301-11.905a1.715 1.715 0 0 1 .447-2.402 1.759 1.759 0 0 1 2.429.442l7.444 10.676 19.552-25.486a1.76 1.76 0 0 1 2.447-.332c.768.577.919 1.66.336 2.42L38.146 52.785a2.42 2.42 0 0 1-1.914.94" fill="#000"/></g></symbol><symbol id="check" viewBox="0 0 80 80"><title>check</title><path d="M26.09 73.19H26a3.51 3.51 0 0 1-2.8-1.51L4.2 44.1a2 2 0 1 1 3.29-2.27l18.62 27L72.56 7.6a2 2 0 1 1 3.19 2.4L28.88 71.8a3.51 3.51 0 0 1-2.79 1.39z"/></symbol><symbol id="chevron-down-oval-filled" viewBox="0 0 80 80"><title>chevron-down-oval-filled</title><path d="M40 1C18.55 1 1 18.55 1 40s17.55 39 39 39 39-17.55 39-39C79 18.355 61.645 1 40 1zm4.29 48.75l-4.095 4.095L36.1 49.75 22.45 36.1l4.095-4.095 13.65 13.65 13.65-13.65L57.94 36.1 44.29 49.75z"/></symbol><symbol id="chevron-down" viewBox="0 0 80 80"><title>chevron-down</title><path d="M39.67 57a3.49 3.49 0 0 1-2.47-1L12.59 31.35l2.83-2.83 24.25 24.26 24.92-24.91 2.83 2.83L42.15 56a3.49 3.49 0 0 1-2.48 1z"/></symbol><symbol id="chevron-left-oval" viewBox="0 0 80 80"><title>previous-link</title><path d="M40 15a25 25 0 1 1-25 25 25 25 0 0 1 25-25m0-4a29 29 0 1 0 29 29 29 29 0 0 0-29-29z"/><path d="M42.61 51.8L31 41.05a1.5 1.5 0 0 1 0-2.17l11.48-11.26 2.1 2.15-10.4 10.15 10.46 9.67z"/></symbol><symbol id="chevron-left" viewBox="0 0 80 80"><title>chevron-left</title><path d="M48.46,67.2,23.19,41.93a3.51,3.51,0,0,1,0-4.95L47.81,12.37l2.83,2.83L26.38,39.46,51.29,64.37Z"/></symbol><symbol id="chevron-right-oval" viewBox="0 0 80 80"><title>more-link</title><path d="M40,15A25,25,0,1,1,15,40,25,25,0,0,1,40,15m0-4A29,29,0,1,0,69,40,29,29,0,0,0,40,11Z"/><path d="M36.52,52.07l-2.1-2.15,10.4-10.15L34.36,30.1l2-2.2L48,38.64a1.5,1.5,0,0,1,0,2.17Z"/></symbol><symbol id="chevron-right" viewBox="0 0 80 80"><title>chevron-right</title><path d="M29.78 65.41L27 62.59l23.23-23.28-23.9-23.9 2.83-2.83 24.25 24.26a3.5 3.5 0 0 1 0 4.95z"/></symbol><symbol id="chevron-up" viewBox="0 0 80 80"><title>chevron-up</title><path d="M15.41 52.16l-2.83-2.83 25.27-25.26a3.5 3.5 0 0 1 4.95 0l24.61 24.61-2.83 2.83-24.25-24.26z"/></symbol><symbol id="clock" viewBox="0 0 80 80"><title>clock</title><path d="M40 15a25 25 0 1 1-25 25 25 25 0 0 1 25-25m0-4a29 29 0 1 0 29 29 29 29 0 0 0-29-29z"/><path d="M50.47 52.79a2 2 0 0 1-1.47-.6L38 40.81v-18a2 2 0 0 1 4 0v16.4l9.9 10.19a2 2 0 0 1-1.44 3.39z"/></symbol><symbol id="configure" viewBox="0 0 80 80"><title>configure</title><path d="M29 78a2 2 0 0 1-.86-.2l-4.32-2.07-4.3-2.07a2 2 0 0 1-1.14-1.8V62c-1.19-1.56-2.09-2.73-3.28-4.2l-9.37-2.02a2 2 0 0 1-1.52-1.51L2 44.8a2 2 0 0 1 .68-2L10 36.89c.21-1 .39-1.79.56-2.62s.35-1.7.57-2.67L6.8 22.76A2 2 0 0 1 7 20.7c1.81-2.45 2.62-3.48 3.74-4.91C11.31 15 12 14.2 12.91 13a2 2 0 0 1 2-.73l9.37 2.2c1.72-.8 3.01-1.47 4.62-2.3l4-9A2 2 0 0 1 34.75 2h9.49A2 2 0 0 1 46 3.15L50.21 12c1.75.9 3 1.54 4.72 2.32l9.1-2.2a2 2 0 0 1 2 .69l2 2.41c1.33 1.62 2.13 2.61 4.1 5.17a2 2 0 0 1 .22 2.07l-4.16 8.84c.22 1 .43 1.79.63 2.63s.41 1.69.64 2.66l7.78 6.07a2 2 0 0 1 .72 2c-.5 2.19-.75 3.44-1 4.68s-.51 2.54-1 4.78a2 2 0 0 1-1.52 1.51l-9.3 2.05c-.81 1.14-1.51 2-2.29 3l-.91 1.17.13 9.8A2 2 0 0 1 61 73.49l-2.74 1.42c-1.8.94-2.89 1.51-5.79 2.89a2 2 0 0 1-2.14-.26l-7.53-6.19h-5.16l-7.35 6.18A2 2 0 0 1 29 78zm7.9-10.65h6.61a2 2 0 0 1 1.27.46l7.06 5.84c2-1 3-1.47 4.52-2.28L58 70.5l-.13-9.26a2 2 0 0 1 .44-1.24l1.36-1.75c.89-1.14 1.66-2.12 2.61-3.49a2 2 0 0 1 1.21-.81L72.31 52c.32-1.47.52-2.46.72-3.45s.41-2 .74-3.54l-7.34-5.73a2 2 0 0 1-.72-1.13c-.29-1.25-.53-2.27-.78-3.3s-.51-2.09-.8-3.35a2 2 0 0 1 .14-1.3l3.93-8.36c-1.41-1.82-2.12-2.69-3.28-4.11l-1.18-1.44-8.54 2.07a2 2 0 0 1-1.29-.12c-2.34-1.05-3.85-1.83-6.12-3a2 2 0 0 1-.9-.93L43 6h-7l-3.78 8.43a2 2 0 0 1-.86.93c-2 1.09-3.46 1.79-5.33 2.69l-.66.32a2 2 0 0 1-1.32.14l-8.81-2.07-1.41 1.81c-.94 1.2-1.66 2.12-3 3.86L15 30.48a2 2 0 0 1 .15 1.32c-.28 1.24-.5 2.26-.71 3.29s-.44 2.09-.73 3.36a2 2 0 0 1-.68 1.1l-6.8 5.57 1.6 7 8.82 1.95a2 2 0 0 1 1.11.68c1.47 1.79 2.46 3.08 3.82 4.87l.39.51a2 2 0 0 1 .41 1.21v9.26l3.18 1.53 3.14 1.51 6.92-5.82a2 2 0 0 1 1.29-.47z"/><path d="M40.06 52.63h-.38a12.64 12.64 0 0 1 .63-25.26 12.64 12.64 0 0 1 12 12.94 12.8 12.8 0 0 1-4 9 11.94 11.94 0 0 1-8.25 3.32zm-.33-1.51a10.41 10.41 0 0 0 7.52-2.88 11.31 11.31 0 0 0 3.55-8 11.13 11.13 0 0 0-10.53-11.37 11.14 11.14 0 0 0-.54 22.26z"/><path d="M40.1 58.92h-.57c-10-.32-18.09-9-17.93-19.39a18.88 18.88 0 0 1 18.58-18.45h.29c10.05.32 18.1 9 17.94 19.39a19.18 19.18 0 0 1-6 13.52 17.87 17.87 0 0 1-12.31 4.93zm.07-36.34a17.37 17.37 0 0 0-17.07 17c-.14 9.55 7.25 17.56 16.48 17.86a16.35 16.35 0 0 0 11.78-4.54 17.68 17.68 0 0 0 5.55-12.46c.14-9.55-7.25-17.56-16.48-17.86z"/></symbol><symbol id="cross" viewBox="0 0 80 80"><title>cross</title><path d="M42.83,40.08,68,14.91a2,2,0,0,0-2.83-2.83L40,37.25l-25-25a2,2,0,0,0-2.83,2.83l25,25L12.33,64.93a2,2,0,1,0,2.83,2.83L40,42.91l25,25a2,2,0,0,0,2.83-2.83Z"/></symbol><symbol id="customer-service" viewBox="0 0 80 80"><title>customer-service</title><path d="M68 35.27a6.15 6.15 0 0 0-3.74-4.81c-1.46-15.6-10.47-18.81-24.42-18.81-16.55 0-23.34 5.35-24.46 19.46a6.62 6.62 0 0 0-3.31 4.23q0 .13-.06.26a36.93 36.93 0 0 0-.5 6.56 52 52 0 0 0 .49 7.37 6.32 6.32 0 0 0 4.74 5.28h.17l7 1.41h.08a6.09 6.09 0 0 0 1.08.1A6.24 6.24 0 0 0 31.13 51v-.22a77.22 77.22 0 0 0 .46-8.45 64.67 64.67 0 0 0-.47-7.86v-.16a6.46 6.46 0 0 0-3.22-4.64c.42-2.79 1.13-3.76 1.76-4.28 1.42-1.16 4.55-1.68 10.17-1.68s8.64.5 10.1 1.63c.64.49 1.36 1.42 1.81 4a6.42 6.42 0 0 0-2.87 4.39v.16a63.17 63.17 0 0 0-.47 7.86 77.16 77.16 0 0 0 .46 8.41 6.15 6.15 0 0 0 6 5.61 5.8 5.8 0 0 0 1.35-.16l.38-.08c-.15.29-.3.59-.47.87a16.92 16.92 0 0 1-4.31 4.6 1.45 1.45 0 0 1-.86.27h-3.44a5.5 5.5 0 1 0-.6 4.25h5.61l.44-.22a19.76 19.76 0 0 0 6.76-6.38 17.2 17.2 0 0 0 2-4.28l1.41-.28h.17A6.32 6.32 0 0 0 68 49a52 52 0 0 0 .47-7.36 36.74 36.74 0 0 0-.47-6.37zM58.47 58a19 19 0 0 1-6.1 5.83l-.17.1h-6.1l-.44.72a4 4 0 1 1 .44-3.09l.25.93 1 .16a3 3 0 0 0 .51 0H51a3 3 0 0 0 1.73-.56 18.39 18.39 0 0 0 4.68-4.88 16.52 16.52 0 0 0 1-2l1.59-.27A15 15 0 0 1 58.47 58zM64 48.44a2.32 2.32 0 0 1-1.74 1.95l-7 1.41a1.8 1.8 0 0 1-.47.06 2.15 2.15 0 0 1-2-2 73.26 73.26 0 0 1-.44-8 59 59 0 0 1 .44-7.36 2.24 2.24 0 0 1 2.14-2 2.08 2.08 0 0 1 .37 0l.76.11c-.52-10.61-3.9-12.85-16.22-12.85-12.65 0-15.81 2.38-16.25 13.53l1.09-.22a1.78 1.78 0 0 1 .47-.06 2.24 2.24 0 0 1 2 2 60.57 60.57 0 0 1 .44 7.36 73.4 73.4 0 0 1-.44 8 2.24 2.24 0 0 1-2.14 2 2.06 2.06 0 0 1-.37 0l-7-1.41A2.32 2.32 0 0 1 16 49a47 47 0 0 1-.44-6.82 33.44 33.44 0 0 1 .44-5.86 2.53 2.53 0 0 1 1.56-1.79 1.43 1.43 0 0 1 .37-.07A1.48 1.48 0 0 0 19.27 33c.6-13.43 5.67-17.39 20.56-17.39 14.72 0 19.87 3.88 20.56 16.88a1.49 1.49 0 0 0 1.22 1.39l.68.12A2.08 2.08 0 0 1 64 35.89a32 32 0 0 1 .44 5.74 46.94 46.94 0 0 1-.44 6.81z"/></symbol><symbol id="damage" viewBox="0 0 114 50"><title>Artboard Copy</title><path d="M25.983 36.212c0-3.186-2.597-5.77-5.8-5.77s-5.8 2.584-5.8 5.77c0 3.186 2.597 5.77 5.8 5.77s5.8-2.584 5.8-5.77zm2.384 0c0 4.496-3.664 8.14-8.184 8.14s-8.184-3.644-8.184-8.14 3.664-8.14 8.184-8.14 8.184 3.644 8.184 8.14zm68.733 0c0-3.186-2.597-5.77-5.8-5.77-3.204 0-5.8 2.584-5.8 5.77 0 3.186 2.596 5.77 5.8 5.77 3.203 0 5.8-2.584 5.8-5.77zm2.383 0c0 4.496-3.664 8.14-8.184 8.14s-8.183-3.644-8.183-8.14 3.664-8.14 8.183-8.14c4.52 0 8.184 3.644 8.184 8.14z"/><path d="M6.4 28.257v.01-.01zm.065 5.835c1.53.673 3.233 1.192 5.068 1.564l2 .405.46 1.978a7.094 7.094 0 0 0 6.914 5.467 7.1 7.1 0 0 0 6.805-5.043l.677-2.258h56.223l.678 2.258a7.1 7.1 0 0 0 6.805 5.043c3.232 0 6.416-2.402 6.75-4.764l.363-2.554 2.588-.16c1.582-.097 2.325-.294 4.16-.564l1.548-.486v-.94c0-.063-.03-2.118-.157-2.868-.145-.853-.655-1.4-.655-1.685 0-2.187-.232-2.991-.565-4.526-.6-.787-.91-1.538-1.218-2.644-1.019.866-1.441 1.211-1.956 1.576-1.341.95-2.277 1.374-3.8.97-1.7-.45-2.672-1.642-3.351-3.288-.345-.837-.554-1.589-.917-3.115l-.046-.196a77.404 77.404 0 0 0-.135-.56c-.18.19-.329.342-.485.492-1.018.972-2.068 1.562-3.508 1.562-2.738 0-4.98-.406-6.761-1.115-1.022-.407-1.788-.866-2.319-1.307a115.035 115.035 0 0 0-3.27-2.026 130.873 130.873 0 0 0-8.712-4.768c-5.68-2.823-9.846-3.218-28.933-3.218-9.094 0-17.594.547-24.669 1.327-.187 1.108-.738 2.167-1.651 3.076-.986.98-3.507 4.156-6.212 7.704v5.062a5.519 5.519 0 0 1-1.629 3.913l-.158.157-.04 5.094.108.437zm96.1-18.016c1.44-1.022 2.414-1.453 4.039-.88 2.664.938 3.643 2.454 4.346 5.117.179.672.241.825.274.865a5.18 5.18 0 0 1 1.107 2.4c.073.401.315.899.855 1.436 1.347 1.34.083 3.07.428 5.104.204 1.204.247 2.152.246 3.798v1.714c0 2.653.108 4.932-2.514 5.435l-3.26.621a76.584 76.584 0 0 1-3.67.469c-1.937 4.433-7.047 7.674-12.321 7.674a13.467 13.467 0 0 1-11.988-7.301H32.894a13.467 13.467 0 0 1-11.987 7.301 13.456 13.456 0 0 1-12.486-8.402 29.25 29.25 0 0 1-5.035-1.783C1.87 38.94.784 37.571.383 35.966l-.22-.887A5.547 5.547 0 0 1 0 33.725l.043-5.492c0-1.468.586-2.876 1.628-3.913l.157-.155v-5A5.5 5.5 0 0 1 2.95 15.83c2.908-3.819 5.406-6.977 6.77-8.392-.142-2.461 1.708-4.62 4.187-4.908C21.474 1.639 30.741 1 40.717 1c20.188 0 24.845.44 31.77 3.883a137.212 137.212 0 0 1 11.838 6.657c.48.304.82.524 1.006.647l.261.174c.243.197.443.3.719.41.887.353 2.107.597 3.714.65.087-.092.37-.396.466-.496 1.75-1.846 3.416-2.781 5.93-2.43 1.895.266 2.972 1.492 3.69 3.21.344.823.543 1.543.913 3.102l.047.195.051.217c.665-.56 1.012-.837 1.443-1.143z"/><path d="M87.175 17.185L28.68 15.408c.01-.005-.216-.046-.514-.118-.5-.121-1-.285-1.456-.493-1.326-.607-1.907-1.365-1.692-2.438a11.5 11.5 0 0 1 .206-.846c.306-1.08.787-2.249 1.396-3.452a29.943 29.943 0 0 1 1.8-3.081l-1.961-1.347c-.13.187-.347.517-.624.965-.458.743-.916 1.55-1.345 2.397-.672 1.33-1.209 2.633-1.56 3.876-.099.348-.182.689-.249 1.023-.474 2.358.816 4.043 3.033 5.057 1.04.475 2.056.72 2.77.817l58.62 1.787.072-2.37z"/><path d="M48.08 6.26l1.872 12.288 2.357-.355-1.872-12.288z"/></symbol><symbol id="dealer-location" viewBox="0 0 80 80"><title>dealer-location</title><path class="a" d="M40 11.16A28.84 28.84 0 1 0 68.84 40 28.84 28.84 0 0 0 40 11.16zm0 55.09A26.25 26.25 0 1 1 66.25 40 26.25 26.25 0 0 1 40 66.25z"/><path class="a" d="M34.25 20.39a20.57 20.57 0 0 1 11.49 0L40 33.11l-5.75-12.72z"/><path class="a" d="M51 22.76A20.55 20.55 0 0 1 56.5 28l-9.42 20.8-3.64-8.08h-6.88l-3.64 8.08-9.41-20.87A20.54 20.54 0 0 1 29 22.76l7.52 16.69h6.91L51 22.76zM20.26 34.71a20.47 20.47 0 0 0 10.62 23.58L20.26 34.71z"/><path class="a" d="M34.35 59.64a20.57 20.57 0 0 0 11.3 0L40 47.1l-5.65 12.54zm14.77-1.35a20.47 20.47 0 0 0 10.63-23.53L49.12 58.29z"/></symbol><symbol id="dealer-marker" viewBox="0 0 80 80"><title>location</title><path d="M40 6a24.76 24.76 0 0 1 25 24.5c0 3.18-1.78 10.95-13.67 27.24-4.33 5.82-8.58 11-11.33 14.2-2.75-3.2-7-8.38-11.29-14.2C16.82 41.45 15 33.68 15 30.5A24.76 24.76 0 0 1 40 6m0-4a28.73 28.73 0 0 0-29 28.5C11 46.24 40 78 40 78s29-31.76 29-47.5A28.73 28.73 0 0 0 40 2z"/><path d="M39.78 18.48A8.52 8.52 0 1 1 31.26 27a8.53 8.53 0 0 1 8.52-8.52m0-1.5a10 10 0 1 0 10 10 10 10 0 0 0-10-10z"/></symbol><symbol id="dealer" viewBox="0 0 80 80"><title>dealer</title><path d="M40 34.61c-9.49 0-20 1.81-20 13.08 0 8 2.31 21.51 10 21.53h20c7.69 0 10-13.48 10-21.53 0-11.27-10.51-13.08-20-13.08zm.43 8.39L44 59.33l-4 2.43-4.14-2.45L39.06 43zM40 40.81c-1.62 0-3-1-3.1-2.12.7 0 1.43-.06 2.2-.07h.9c1.11 0 2.13 0 3.09.08-.09 1.15-1.47 2.11-3.09 2.11zm10 24.41H30c-2.84 0-6-7.21-6-17.53 0-4.15 1.5-8 11.41-8.9a3.76 3.76 0 0 0 2.35 3l-3.59 18.27L40 63.5l5.71-3.44-4-18a3.9 3.9 0 0 0 2.83-3.23C54.5 39.67 56 43.55 56 47.69c0 10.31-3.17 17.53-6 17.53zM40 31.54a10.58 10.58 0 0 0 10.77-10.39 10.78 10.78 0 0 0-21.54 0A10.58 10.58 0 0 0 40 31.54zm0-16.77a6.59 6.59 0 0 1 6.77 6.38 6.78 6.78 0 0 1-13.54 0A6.59 6.59 0 0 1 40 14.77z"/></symbol><symbol id="dimensions" viewBox="0 0 80 80"><title>dimensions</title><path d="M78 23.7a2 2 0 0 0 0-.22v-18a3.5 3.5 0 0 0-3.5-3.5H5.54A3.5 3.5 0 0 0 2 5.44V22a3.5 3.5 0 0 0 3.5 3.5h48.87v48.9A3.66 3.66 0 0 0 58 78.06h16.3A3.66 3.66 0 0 0 78 74.4zM6 5.94h7.76v5.88a.75.75 0 1 0 1.5 0V5.94h8.46v5.88a.75.75 0 0 0 1.5 0V5.94h8.46v5.88a.75.75 0 0 0 1.5 0V5.94h8.46v5.88a.75.75 0 0 0 1.5 0V5.94h8.46v5.88a.75.75 0 0 0 1.5 0V5.94h8.46v5.88a.75.75 0 1 0 1.5 0V5.94h8.86v15.59H6zm52.37 68.12V25.75L74 25.7v48.36z"/><path d="M64.08 64.34a3.52 3.52 0 1 0 4.8 1.29 3.52 3.52 0 0 0-4.8-1.29zm2.77 4.79a2 2 0 1 1 .74-2.75 2 2 0 0 1-.75 2.75z"/></symbol><symbol id="download" viewBox="0 0 80 80"><title>download</title><path d="M59.53 37.16a2 2 0 0 0-2.83 0l-15.6 16L41.12 4a2 2 0 0 0-2-2 2 2 0 0 0-2 2v48.83L21.49 37.62a2 2 0 1 0-2.79 2.86l18.17 17.74a3.47 3.47 0 0 0 2.44 1 3.48 3.48 0 0 0 2.46-1.06L59.56 40a2 2 0 0 0-.03-2.84z"/><path d="M74.6 78h-69a3.5 3.5 0 0 1-3.5-3.5V50.26a2 2 0 0 1 4 0V74h68V50.26a2 2 0 0 1 4 0v24.2A3.5 3.5 0 0 1 74.6 78z"/></symbol><symbol id="email" viewBox="0 0 80 80"><title>email</title><path d="M76.5 14h-73A1.5 1.5 0 0 0 2 15.5v49A1.5 1.5 0 0 0 3.5 66h73a1.5 1.5 0 0 0 1.5-1.5v-49a1.5 1.5 0 0 0-1.5-1.5zM6 20l25.54 24.77L6 61.77zm.11-2H73.9L40.07 51zm26.54 27.84l6.9 6.7a.75.75 0 0 0 1 0l7.05-6.87L71.72 62H8.36zm16.1-1.24L74 20v41.74z"/><path d="M43.27 39.8a.28.28 0 0 0 .17-.14.33.33 0 0 0 0-.24l-.1-.42a.31.31 0 0 0-.15-.2.3.3 0 0 0-.24 0 10.68 10.68 0 0 1-2.17.38 7.25 7.25 0 0 1-5.4-1.9 7.38 7.38 0 0 1-2.31-5.39 7.75 7.75 0 0 1 2.14-5.61 7.38 7.38 0 0 1 5.4-2.09c4.8 0 6.52 3.28 6.52 6.35s-1.37 4.64-2.73 4.64a1.25 1.25 0 0 1-1-.41 2.29 2.29 0 0 1-.2-1.92l.89-4.92a.29.29 0 0 0-.07-.22.28.28 0 0 0-.21-.09h-.91l-.49.73h-.23l-.11-.06a3.19 3.19 0 0 0-2.2-.92c-2.57 0-4.1 2.73-4.1 5.37 0 2 1.21 3.37 3 3.37a4 4 0 0 0 2.61-1l.07-.06h.23l.11.13a2.45 2.45 0 0 0 2.35 1.22c2 0 4.19-2.05 4.19-5.85a7.11 7.11 0 0 0-1.94-5.24A7.78 7.78 0 0 0 40.65 23a8.6 8.6 0 0 0-9 8.78c0 5.38 3.07 8.46 8.42 8.46a11.6 11.6 0 0 0 3.2-.44zm-1.9-5.88l-.08.06a3.42 3.42 0 0 1-1.86.62c-1.12 0-1.8-.76-1.8-2 0-2.2 1.13-3.79 2.69-3.79a2.77 2.77 0 0 1 1.7.58l.12.09z"/></symbol><symbol id="emission-small" viewBox="0 0 80 80"><title>emission-small</title><path d="M48 61.83H22.24A17.46 17.46 0 0 1 14 60.14 12.28 12.28 0 0 1 7.23 47.7a12.78 12.78 0 0 1 9.13-11 11.7 11.7 0 0 1 4.13-8.61 12.14 12.14 0 0 1 9.77-2.47 3.72 3.72 0 0 1 .61.17c.35.13.6.2.78.25a16.49 16.49 0 0 1 19.41-7.07 16.84 16.84 0 0 1 11.4 15.16 14.18 14.18 0 0 1-1.68 27.42 18 18 0 0 1-3.56.28zm-9.22-4h18.43a14.48 14.48 0 0 0 2.77-.2 10.19 10.19 0 0 0 .93-19.8 3.43 3.43 0 0 1-2.44-3.27 12.9 12.9 0 0 0-8.62-11.79 12.59 12.59 0 0 0-15.09 5.87c-.87 1.54-2.64 1.84-5.25.9A8.16 8.16 0 0 0 23 31.13 7.8 7.8 0 0 0 20.35 37a3.34 3.34 0 0 1-2.77 3.47 8.82 8.82 0 0 0-6.37 7.62 8.36 8.36 0 0 0 4.64 8.46 13.73 13.73 0 0 0 6.39 1.25h16.53z"/></symbol><symbol id="emission" viewBox="0 0 80 80"><title>emission</title><path d="M47.63 18.64a16 16 0 0 1 4.86.78 15 15 0 0 1 10 13.67 5.82 5.82 0 0 0 4.13 5.55A11.53 11.53 0 0 1 75 50.73a11.71 11.71 0 0 1-9.4 10.39 17.27 17.27 0 0 1-3.25.23H17.73a16.18 16.18 0 0 1-7.51-1.44 9.25 9.25 0 0 1-5.14-9.37 9.77 9.77 0 0 1 7-8.46 5.71 5.71 0 0 0 4.65-5.79c.15-5 3.53-8.29 8.41-8.29a11.63 11.63 0 0 1 1.47.1 11 11 0 0 0 3.61.74 5.22 5.22 0 0 0 4.71-2.59 14.36 14.36 0 0 1 12.7-7.6m0-4a18.43 18.43 0 0 0-16.18 9.63 1.31 1.31 0 0 1-1.23.56 9.66 9.66 0 0 1-2.67-.65 15.75 15.75 0 0 0-2.4-.19C18 24 13 29.12 12.73 36.16c0 1.19-.34 1.73-1.57 2A13.8 13.8 0 0 0 1.07 50.14a13.2 13.2 0 0 0 7.32 13.34 20.19 20.19 0 0 0 9.31 1.87h44.63a20.64 20.64 0 0 0 4-.31A15.64 15.64 0 0 0 79 51a15.46 15.46 0 0 0-11.21-16.18 1.85 1.85 0 0 1-1.31-1.75 19 19 0 0 0-12.77-17.46 20 20 0 0 0-6.08-1z"/></symbol><symbol id="energy-label" viewBox="0 0 80 80"><title>energy-label</title><path d="M63.92 28l9.58 12-9.57 12H6V28h57.92m0-4H4.13A2.16 2.16 0 0 0 2 26.18v27.64A2.16 2.16 0 0 0 4.13 56h59.8a4 4 0 0 0 3.12-1.5l9.58-12a4 4 0 0 0 0-5l-9.58-12a4 4 0 0 0-3.13-1.5z"/></symbol><symbol id="faq" viewBox="0 0 80 80"><title>faq</title><path d="M48.65 78.13A4 4 0 0 1 45.83 77L32.56 63.7H6a4 4 0 0 1-4-4V10a4 4 0 0 1 4-4h68a4 4 0 0 1 4 4v49.7a4 4 0 0 1-4 4H52.65v10.43a4 4 0 0 1-4 4zM32.57 59.7a4 4 0 0 1 2.83 1.17l13.26 13.26V63.69a4 4 0 0 1 4-4H74V10H6v49.7zm41.4 0z"/><path d="M39.5 43.93a3.53 3.53 0 1 0 3.5 3.52 3.27 3.27 0 0 0-3.5-3.52zm0-22.04a12.23 12.23 0 0 0-8.25 3.53.63.63 0 0 0-.07.87l2.13 2.8a.67.67 0 0 0 1 .07 7.47 7.47 0 0 1 5.19-2.4c2.33 0 3.59 1.53 3.59 3.13 0 2.22-2.05 4-5.09 5.05a1.5 1.5 0 0 0-1 1.47l.15 3.53a.72.72 0 0 0 .67.67h2.59a1.5 1.5 0 0 0 1.47-1.21l.12-.61a1.48 1.48 0 0 1 .76-1c2.71-1.42 6.24-3.85 6.24-8.11.09-4.92-3.64-7.79-9.5-7.79z"/></symbol><symbol id="fuel-consumption" viewBox="0 0 80 80"><title>fuel-consumption</title><path d="M38.86 24.5v12.16h-15V24.5h15m0-1.5h-15a1.5 1.5 0 0 0-1.5 1.5v12.16a1.5 1.5 0 0 0 1.5 1.5h15a1.5 1.5 0 0 0 1.5-1.5V24.5a1.5 1.5 0 0 0-1.5-1.5z"/><path d="M68.36 30.1h-2V19.5a2 2 0 0 0 0-.28 2 2 0 0 0-.58-1.43l-11-11a2 2 0 0 0-2.83 2.83l5.82 5.82v3.07a2 2 0 0 0 .59 1.41l4 4V59.1c0 .5-.13 3-2.69 3-2.37 0-2.67-2.1-2.67-3v-22c0-4.7-3.81-6.65-6.81-7V17.6a3.5 3.5 0 0 0-3.5-3.5H17.32a3.5 3.5 0 0 0-3.5 3.5v52.5h-2.46a2 2 0 0 0 0 4h43a2 2 0 0 0 0-4h-4.18V34.17A3 3 0 0 1 53 37.1v22c0 2.81 1.78 7 6.69 7s6.69-4.19 6.69-7v-25h2a2 2 0 0 0 0-4zm-50.55 40v-52h28.37v52z"/></symbol><symbol id="history" viewBox="0 0 80 80"><title>history</title><path d="M39.71,10.71A28.83,28.83,0,0,0,11.27,35H3.85l9.4,12.75L22.65,35H15.33A24.79,24.79,0,1,1,39.71,64.29a2,2,0,0,0,0,4,28.79,28.79,0,0,0,0-57.58Z"/><path d="M50.32,52.79a2,2,0,0,1-1.44-.61l-11-11.37v-18a2,2,0,0,1,4,0v16.4l9.9,10.21a2,2,0,0,1-1.44,3.39Z"/></symbol><symbol id="info" viewBox="0 0 80 80"><title>info</title><path d="M40 15a25 25 0 1 1-25 25 25 25 0 0 1 25-25m0-4a29 29 0 1 0 29 29 29 29 0 0 0-29-29z"/><rect x="38" y="36" width="4" height="17.06" rx=".5" ry=".5"/><path d="M40 25a3 3 0 1 0 3 3 3 3 0 0 0-3-3z"/></symbol><symbol id="infotainment-and-audio" viewBox="0 0 80 80"><title>infotainment-and-audio</title><path d="M73.78 38.25V17.33A4.34 4.34 0 0 0 69.45 13H6.33A4.34 4.34 0 0 0 2 17.33V62a4.34 4.34 0 0 0 4.33 4.33H44a8.31 8.31 0 0 0-1.3 4.45 8.42 8.42 0 1 0 16.85 0v-4.45h1.56v.15A8.41 8.41 0 0 0 77.77 68a5.56 5.56 0 0 0 .23-1.59V43.7a5.62 5.62 0 0 0-4.22-5.45zM7 18h61.83v20.8l-4.1 1V25A2.79 2.79 0 0 0 62 22.18H13.68A2.79 2.79 0 0 0 10.9 25v23.48a2.79 2.79 0 0 0 2.78 2.78H48.3v10.12H7zm41.3 30.09v1.32h-9l-3.58-8.76L62.88 31v9.22l-10.05 2.37a5.61 5.61 0 0 0-4.53 5.5zm14.58-21.38L34.21 36.95 28.93 24H62a.93.93 0 0 1 .93.93zM32.8 37.45l-4.13 1.47L22.58 24h4.73zm-5.54 2l-14.5 5.18V25a.93.93 0 0 1 .93-.93H21zm1.52 3.71l2.57 6.27H13.68a.93.93 0 0 1-.86-.58zm1.41-.51l4.13-1.47 3.38 8.25H33zm36.58 15.9q-.39.14-.77.32a8.28 8.28 0 0 0-1.59.94 8.43 8.43 0 0 0-1.58 1.59h-3.3v-4.65L66.77 55zM74 66.41a1.57 1.57 0 0 1-.08.49l-.07.3a4.41 4.41 0 0 1-8.77-.62v-.19a4.3 4.3 0 0 1 2.58-3.9 4.35 4.35 0 0 1 1.34-.4l1.77-.2v-12l-15.24 3.7v17.2A4.42 4.42 0 1 1 48 67.72a4.37 4.37 0 0 1 2.6-1.33l1.75-.22V48.09a1.59 1.59 0 0 1 1.32-1.58l17.51-4.21h.47l.24-.08.24-.06h.26A1.62 1.62 0 0 1 74 43.7z"/><path d="M45.18 56.27H30.33a.75.75 0 0 0 0 1.5h14.85a.75.75 0 0 0 0-1.5z"/></symbol><symbol id="location-small" viewBox="0 0 80 80"><title>location-small</title><path d="M40.17,15.36A17.52,17.52,0,0,1,57.83,32.68C57.83,39.26,48,53,40.17,62.17,32.37,53,22.5,39.26,22.5,32.68A17.52,17.52,0,0,1,40.17,15.36m0-4A21.5,21.5,0,0,0,18.5,32.68c0,11.78,21.67,35.55,21.67,35.55S61.83,44.46,61.83,32.68A21.5,21.5,0,0,0,40.17,11.36Z"/><path d="M40,26.56a3.5,3.5,0,1,1-3.5,3.5,3.5,3.5,0,0,1,3.5-3.5m0-4a7.5,7.5,0,1,0,7.5,7.5,7.5,7.5,0,0,0-7.5-7.5Z"/></symbol><symbol id="location" viewBox="0 0 80 80"><title>location</title><path d="M40 6a24.76 24.76 0 0 1 25 24.5c0 3.18-1.78 10.95-13.67 27.24-4.33 5.82-8.58 11-11.33 14.2-2.75-3.2-7-8.38-11.29-14.2C16.82 41.45 15 33.68 15 30.5A24.76 24.76 0 0 1 40 6m0-4a28.73 28.73 0 0 0-29 28.5C11 46.24 40 78 40 78s29-31.76 29-47.5A28.73 28.73 0 0 0 40 2z"/><path d="M39.78 18.48A8.52 8.52 0 1 1 31.26 27a8.53 8.53 0 0 1 8.52-8.52m0-1.5a10 10 0 1 0 10 10 10 10 0 0 0-10-10z"/></symbol><symbol id="magnifier" viewBox="0 0 21 21"><title>Icon</title><path d="M20.714 18.156l-4.09-4.089a.984.984 0 0 0-.696-.287h-.67a8.488 8.488 0 0 0 1.806-5.25A8.53 8.53 0 0 0 8.532 0 8.53 8.53 0 0 0 0 8.53a8.53 8.53 0 0 0 8.532 8.53 8.491 8.491 0 0 0 5.25-1.804v.669c0 .262.103.512.287.697l4.09 4.089a.98.98 0 0 0 1.39 0l1.161-1.16a.989.989 0 0 0 .004-1.395zM8.5 15C4.91 15 2 12.095 2 8.5 2 4.91 4.905 2 8.5 2 12.09 2 15 4.905 15 8.5c0 3.59-2.905 6.5-6.5 6.5z"/></symbol><symbol id="mailing-address" viewBox="0 0 80 80"><title>mailing-address</title><path d="M67.95 36.51h-10a.75.75 0 0 1-.75-.75v-13a.75.75 0 0 1 .75-.75h10a.75.75 0 0 1 .75.75v13a.75.75 0 0 1-.75.75zM58.7 35h8.5V23.51h-8.5zM34 46H12a.75.75 0 0 1 0-1.5h22a.75.75 0 0 1 0 1.5zm0 8H12a.75.75 0 0 1 0-1.5h22a.75.75 0 0 1 0 1.5z"/><path d="M74 18v44H6V18h68m2.5-4h-73A1.5 1.5 0 0 0 2 15.5v49A1.5 1.5 0 0 0 3.5 66h73a1.5 1.5 0 0 0 1.5-1.5v-49a1.5 1.5 0 0 0-1.5-1.5z"/></symbol><symbol id="maximize" viewBox="0 0 80 80"><title>maximize</title><path d="M32.58 29.25L18.33 15h12.84v-4H11.5v19.67h4V17.83l14.25 14.25 2.83-2.83zM64.5 48.33v12.84L50.25 46.92l-2.83 2.83L61.67 64H48.83v4H68.5V48.33h-4zm-31.92 1.42l-2.83-2.83L15.5 61.17V48.33h-4V68h19.67v-4H18.33l14.25-14.25zM48.83 11v4h12.84L47.42 29.25l2.83 2.83L64.5 17.83v12.84h4V11H48.83z"/></symbol><symbol id="menu" viewBox="0 0 80 80"><title>menu</title><path d="M67 19.54H13a2 2 0 0 1 0-4h54a2 2 0 1 1 0 4zm0 21.6H13a2 2 0 0 1 0-4h54a2 2 0 0 1 0 4zm0 21.6H13a2 2 0 0 1 0-4h54a2 2 0 0 1 0 4z"/></symbol><symbol id="minimize" viewBox="0 0 80 80"><title>minimize</title><path d="M28.5 11.5v14.17L12.91 10.09l-2.82 2.82L25.67 28.5H11.5v4h21v-21h-4zm41.41 55.59L54.33 51.5H68.5v-4h-21v21h4V54.33l15.59 15.58 2.82-2.82zM11.5 47.5v4h14.17L10.09 67.09l2.82 2.82L28.5 54.33V68.5h4v-21h-21zm58.41-34.59l-2.82-2.82L51.5 25.67V11.5h-4v21h21v-4H54.33l15.58-15.59z"/></symbol><symbol id="minus" viewBox="0 0 80 80"><title>minus</title><path d="M69.5,42h-59a2,2,0,0,1,0-4h59a2,2,0,0,1,0,4Z"/></symbol><symbol id="models" viewBox="0 0 80 80"><title>models</title><path d="M76.27 41.84a1.79 1.79 0 0 1-.54-.91 3.33 3.33 0 0 0-.7-1.52c-3.88-4.69-15.79-4.9-15.91-4.9a6.35 6.35 0 0 1-3.1-.58l-.29-.21a82.61 82.61 0 0 0-8.08-4.62c-4.92-2.46-9.64-2.46-20-2.46a150.21 150.21 0 0 0-16.87 1 3 3 0 0 0-2 1.18 3 3 0 0 0-.59 1.93c-1 1.05-3.08 3.75-4.26 5.31a3.47 3.47 0 0 0-.71 2.11v3.13l-.1.1a3.47 3.47 0 0 0-1 2.46v3.51a3.49 3.49 0 0 0 .1.84l.14.57a3.47 3.47 0 0 0 1.81 2.32 18.42 18.42 0 0 0 3.17 1.13 8.43 8.43 0 0 0 7.86 5.32 8.54 8.54 0 0 0 7.54-4.62h32.72A8.53 8.53 0 0 0 63 57.54a8.7 8.7 0 0 0 7.75-4.85c.71-.07 1.46-.17 2.24-.28l2.13-.41A3.51 3.51 0 0 0 78 48.56v-1.09c0-1.38 0-3.94-1.73-5.63zm-23.18-5.07l-18.32-.56-.84-5.54c5.71.09 8.85.46 11.95 2a82.43 82.43 0 0 1 7.21 4.1zm-20.68-6.11l.83 5.51-13.07-.4a3.77 3.77 0 0 1-2.22-1.07 1.06 1.06 0 0 1-.16-.87 11.65 11.65 0 0 1 1.11-2.91c2.57-.16 5.55-.27 8.77-.27zM14.75 52.57a3.65 3.65 0 1 1 3.65-3.65 3.65 3.65 0 0 1-3.65 3.65zm47.75 0a3.65 3.65 0 1 1 3.65-3.65 3.65 3.65 0 0 1-3.65 3.65zM74 48.14l-1.61.31c-1.19.18-2.28.3-3.25.36l-1.46.09a5.15 5.15 0 0 0-10.3 0H19.91a5.14 5.14 0 0 0-10.27-.29l-.32-.07a15.69 15.69 0 0 1-3.19-1L6 47.31v-3.22l.1-.1a3.48 3.48 0 0 0 1-2.48v-3.2c1.87-2.47 3.36-4.33 3.91-4.87a3.59 3.59 0 0 0 1-1.94c1.2-.13 2.93-.3 5-.45a11.72 11.72 0 0 0-.85 2.5 2.56 2.56 0 0 0 .41 2A5.22 5.22 0 0 0 20 37.26l13.42.41v.08l.42-.06 23 .7a14.27 14.27 0 0 0 2.27.17c4 0 10.79 1.29 12.71 3.31a5.84 5.84 0 0 0 1.61 2.84c.51.51.51 2.12.51 2.88z"/></symbol><symbol id="more-link-bold" viewBox="0 0 80 80"><title>more-link-bold</title><path d="M40,15A25,25,0,1,1,15,40,25,25,0,0,1,40,15m0-4A29,29,0,1,0,69,40,29,29,0,0,0,40,11Z"/><path d="M36.87,52.43l-2.79-2.86,10-9.78L34,30.47l2.71-2.94L48.36,38.28a2,2,0,0,1,0,2.9Z"/></symbol><symbol id="more-link" viewBox="0 0 80 80"><title>more-link</title><path d="M40,15A25,25,0,1,1,15,40,25,25,0,0,1,40,15m0-4A29,29,0,1,0,69,40,29,29,0,0,0,40,11Z"/><path d="M36.52,52.07l-2.1-2.15,10.4-10.15L34.36,30.1l2-2.2L48,38.64a1.5,1.5,0,0,1,0,2.17Z"/></symbol><symbol id="mot-maintenance" viewBox="0 0 80 80"><title>mot-maintenance</title><path d="M25.8 31.45l-2.55-3.69a.75.75 0 1 1 1.23-.85l1.37 2 4-5.33a.75.75 0 1 1 1.2.91zm0 11.55l-2.55-3.69a.75.75 0 1 1 1.23-.85l1.37 2 4-5.33a.75.75 0 1 1 1.2.91zm0 11.58l-2.55-3.69a.75.75 0 1 1 1.24-.89l1.37 2 4-5.33a.75.75 0 1 1 1.2.91zm29.04-23.87h-18a.75.75 0 0 1 0-1.5h18a.75.75 0 1 1 0 1.5zm0 11.57h-18a.75.75 0 0 1 0-1.5h18a.75.75 0 0 1 0 1.5zm0 11.56h-18a.75.75 0 0 1 0-1.5h18a.75.75 0 1 1 0 1.5z"/><path d="M63.2 3.45H48.92A2.88 2.88 0 0 0 46.43 2H33.57a2.88 2.88 0 0 0-2.49 1.45H16.8a4.5 4.5 0 0 0-4.5 4.5V73.5a4.5 4.5 0 0 0 4.5 4.5h46.4a4.5 4.5 0 0 0 4.5-4.5V7.95a4.5 4.5 0 0 0-4.5-4.5zM32.61 4.89a1 1 0 0 1 1-1h12.82a1 1 0 0 1 1 1v2.57a1 1 0 0 1-1 1H33.57a1 1 0 0 1-1-1zm29.95 68H17.45V8.59h13.46a2.9 2.9 0 0 0 2.66 1.77h12.86a2.9 2.9 0 0 0 2.66-1.77h13.46z"/></symbol><symbol id="my-dealer" viewBox="0 0 80 80"><title>my dealer</title><ellipse cx="40" cy="21.15" rx="10.77" ry="10.38"/><path d="M40 34.61c-9.49 0-20 1.81-20 13.08 0 8 2.31 21.51 10 21.53h20c7.69 0 10-13.48 10-21.53 0-11.27-10.51-13.08-20-13.08zm-2.48 3.85a4.27 4.27 0 0 1 .93-.07h4.36a4.27 4.27 0 0 1 .93.07v.09c0 1.23-1.43 2.26-3.12 2.26s-3.12-1-3.12-2.26c.02-.04.02-.07.02-.09zm3.11 23.29l-4.14-2.45 3.2-16.3h1.37l3.59 16.33zm22.78-37.84L56.59 14a2 2 0 0 1 3.29-2.27l3.68 5.34L74.41 2.79a2 2 0 1 1 3.19 2.42z"/></symbol><symbol id="my-license" viewBox="0 0 80 80"><title>my-license</title><path d="M75 27.64v24.72H5V27.64h70m1.5-3h-73a1.5 1.5 0 0 0-1.5 1.5v27.72a1.5 1.5 0 0 0 1.5 1.5h73a1.5 1.5 0 0 0 1.5-1.5V26.14a1.5 1.5 0 0 0-1.5-1.5z"/><path d="M31 41.5h-8a1.5 1.5 0 1 1 0-3h8a1.5 1.5 0 0 1 0 3zm26.23 0h-8a1.5 1.5 0 0 1 0-3h8a1.5 1.5 0 0 1 0 3z"/></symbol><symbol id="my-location" viewBox="0 0 80 80"><title>my-location</title><circle cx="39.48" cy="39.95" r="13.79"/><path d="M75.83 37.79h-7.44A29 29 0 0 0 41.71 11V3.94a2 2 0 1 0-4 0V11a29 29 0 0 0-27.14 26.79H4a2 2 0 1 0 0 4h6.51a29 29 0 0 0 27.2 27.1v6.76a2 2 0 0 0 4 0v-6.8a29 29 0 0 0 26.71-27.06h7.41a2 2 0 1 0 0-4zM39.48 64.95a25 25 0 1 1 25-25 25 25 0 0 1-25 25z"/></symbol><symbol id="occasions" viewBox="0 0 80 80"><title>occassions</title><path d="M73.58 44.73h-1.76c-3.33-7.16-12.42-9.58-20.73-9.3a.43.43 0 0 1-.4-.22l-1.55-2.41a8 8 0 0 0-5.44-4.08 38.37 38.37 0 0 0-10-.91c-19.26 0-27.28 14-29.83 20a4.47 4.47 0 0 0 3.23 6.13l3.13.14a7.58 7.58 0 0 0 13 .24h31.83a7.53 7.53 0 0 0 6.43 3.56 7.61 7.61 0 0 0 7-4.61l1.47-.13h.15a3.56 3.56 0 0 0 2.82-2.5h.68a2.92 2.92 0 0 0 0-5.83zm-.84 2.68a1.82 1.82 0 0 1 .13.23l-.07.13c0-.13-.05-.26-.08-.39zm-39-15.6H34a34.27 34.27 0 0 1 9 .85h.16a4.32 4.32 0 0 1 2.61 2.2l1.57 2.48a4.49 4.49 0 0 0 .31.42h-14v-6zm-9.65 6a1.29 1.29 0 0 1-1.29-1.16l-.26-2.69a28.39 28.39 0 0 1 9.51-2.07v5.92zm-6 15.78a3.5 3.5 0 0 1-3.23-.29 3.2 3.2 0 1 1 3.23.29zm45.81-.72a3.49 3.49 0 0 1-3.32.87 3.2 3.2 0 1 1 3.32-.87zm2.16-3.43a4.67 4.67 0 0 0-9.16.8l-.77.06H21.41a4.68 4.68 0 0 0-9.3-.18l-4.33-.16a.47.47 0 0 1-.23-.21.45.45 0 0 1 0-.39c1.58-3.7 5.52-10.83 13.59-14.76l.22 2.19a2.78 2.78 0 0 0 2.78 2.52h25.8a4.5 4.5 0 0 0 1.27.15c14.59-.49 17.29 6.8 17.78 9.72z"/></symbol><symbol id="other-products" viewBox="0 0 80 80"><title>other-products</title><path d="M75.93 21.8h-7.81a4 4 0 0 0 .06-.59V15a4 4 0 0 0-4-4H53.13a4 4 0 0 0-4 4v6.21a4 4 0 0 0 .06.59H30.81a4 4 0 0 0 .06-.59V15a4 4 0 0 0-4-4H15.82a4 4 0 0 0-4 4v6.21a4 4 0 0 0 .06.59H4.07A2.09 2.09 0 0 0 2 23.9V32a2.09 2.09 0 0 0 2.07 2.1h2.19a2.09 2.09 0 0 1 2.07 2.1v30.6a2.09 2.09 0 0 0 2.07 2.1h59.77a2.09 2.09 0 0 0 2.07-2.1V36.21a2.09 2.09 0 0 1 2.07-2.1h1.61A2.09 2.09 0 0 0 78 32v-8.1a2.09 2.09 0 0 0-2.07-2.1zM53.13 15h11.05v6.21H53.13zm-37.31 0h11.05v6.21H15.82zM74 30.11a6.1 6.1 0 0 0-5.76 6.1V64.9H12.33V36.21a6.1 6.1 0 0 0-6.07-6.1H6V25.8h68z"/><path d="M19.47 34.8h41.06a.75.75 0 0 0 0-1.5H19.47a.75.75 0 0 0 0 1.5zm12.39 12.38H26.3v-5.31a.75.75 0 0 0-1.5 0v5.32h-4.89a.75.75 0 0 0 0 1.5h4.89V54a.75.75 0 0 0 1.5 0v-5.32h5.56a.75.75 0 0 0 0-1.5zm16.74.75a.75.75 0 0 0 .75.75h11.94a.75.75 0 1 0 0-1.5H49.35a.75.75 0 0 0-.75.75z"/></symbol><symbol id="other-services" viewBox="0 0 80 80"><title>other-services</title><path d="M62.5 66.18h-1.33L46.29 4.82A3.65 3.65 0 0 0 42.72 2h-7.34a3.69 3.69 0 0 0-3.58 2.87L18 66.18h-.5a4 4 0 0 0-4 4v4a4 4 0 0 0 4 4h45a4 4 0 0 0 4-4v-4a4 4 0 0 0-4-4zM27.4 42.62h23.94L54.09 54H24.84zm2.89-12.85h17.93L51 41.12H27.74zm17.57-1.5H30.63L32.94 18h12.43zM35.64 6h6.81L45 16.5H33.28zM24.51 55.47h29.94l2.6 10.71h-35zm38 18.71h-45v-4h45z"/></symbol><symbol id="pause" viewBox="0 0 80 80"><title>pauze</title><path d="M29 15.5v49H17.5v-49H29m0-4H17.5a4 4 0 0 0-4 4v49a4 4 0 0 0 4 4H29a4 4 0 0 0 4-4v-49a4 4 0 0 0-4-4zm33.5 4v49H51v-49h11.5m0-4H51a4 4 0 0 0-4 4v49a4 4 0 0 0 4 4h11.5a4 4 0 0 0 4-4v-49a4 4 0 0 0-4-4z"/></symbol><symbol id="percentage" viewBox="0 0 80 80"><title>percentage</title><path d="M13.59 68.42A2 2 0 0 1 12.17 65l52.9-52.79A2 2 0 1 1 67.89 15L15 67.83a2 2 0 0 1-1.41.59zm7.24-38.22a9.6 9.6 0 0 1 0-19.2 9.61 9.61 0 0 1 9.59 9.61 9.61 9.61 0 0 1-9.59 9.59zm0-15.2a5.6 5.6 0 0 0 0 11.2 5.6 5.6 0 0 0 0-11.2zm7.6 5.61zm30.4 48.59a9.6 9.6 0 0 1 0-19.2 9.61 9.61 0 0 1 9.59 9.61 9.61 9.61 0 0 1-9.59 9.59zm0-15.2a5.6 5.6 0 0 0 0 11.2 5.6 5.6 0 0 0 0-11.2zm7.6 5.61z"/></symbol><symbol id="phone-small" viewBox="0 0 80 80"><title>phone-small</title><path d="M50 11.19H31a10 10 0 0 0-10 10V58.4a10 10 0 0 0 10 10h19a10 10 0 0 0 10-10V21.19a10 10 0 0 0-10-10zm-19 4h19a6 6 0 0 1 6 6v1.14H25v-1.14a6 6 0 0 1 6-6zm25 8.64V54.7H25V23.83zM50 64.4H31a6 6 0 0 1-6-6v-2.2h31v2.2a6 6 0 0 1-6 6z"/><path d="M46.06 58.71H34.69a2 2 0 0 0 0 4h11.37a2 2 0 1 0 0-4z"/></symbol><symbol id="phone" viewBox="0 0 80 80"><title>phone</title><path d="M54 1.7H26a10 10 0 0 0-10 10v56a10 10 0 0 0 10 10h28a10 10 0 0 0 10-10v-56a10 10 0 0 0-10-10zm-28 4h28a6 6 0 0 1 6 6v5H20v-5a6 6 0 0 1 6-6zm34 12.54v41.5H20v-41.5zM54 73.7H26a6 6 0 0 1-6-6v-6.46h40v6.46a6 6 0 0 1-6 6z"/><path d="M46.84 65.49h-14a2 2 0 0 0 0 4h14a2 2 0 0 0 0-4z"/></symbol><symbol id="play" viewBox="0 0 80 80"><title>play</title><path d="M27.5 10.74l32.12 30.93L27.5 70.43V10.78m0-4a4 4 0 0 0-4 4v59.65a4 4 0 0 0 4 4 3.93 3.93 0 0 0 2.64-1l32.15-28.78a4 4 0 0 0 .1-5.86L30.27 7.9a3.92 3.92 0 0 0-2.75-1.12z"/></symbol><symbol id="plus" viewBox="0 0 80 80"><title>plus</title><path d="M69.5,38H41.82V10.5a2,2,0,0,0-4,0V38H10.5a2,2,0,0,0,0,4H37.82V69.5a2,2,0,0,0,4,0V42H69.5a2,2,0,0,0,0-4Z"/></symbol><symbol id="previous-link-bold" viewBox="0 0 80 80"><title>pevious-link-bold</title><path d="M40,15A25,25,0,1,1,15,40,25,25,0,0,1,40,15m0-4A29,29,0,1,0,69,40,29,29,0,0,0,40,11Z"/><path d="M42.27,52.17,30.64,41.42a2,2,0,0,1,0-2.9L42.13,27.27l2.79,2.86-10,9.78L45,49.23Z"/></symbol><symbol id="previous-link" viewBox="0 0 80 80"><title>previous-link</title><path d="M40 15a25 25 0 1 1-25 25 25 25 0 0 1 25-25m0-4a29 29 0 1 0 29 29 29 29 0 0 0-29-29z"/><path d="M42.61 51.8L31 41.05a1.5 1.5 0 0 1 0-2.17l11.48-11.26 2.1 2.15-10.4 10.15 10.46 9.67z"/></symbol><symbol id="prices" viewBox="0 0 80 80"><title>prices</title><path d="M27.42 24.25a5.81 5.81 0 0 1-5.58-6 5.81 5.81 0 0 1 5.58-6 5.31 5.31 0 0 1 2.92.88.75.75 0 0 1-.82 1.25 3.8 3.8 0 0 0-2.1-.64 4.31 4.31 0 0 0-4.08 4.5 4.31 4.31 0 0 0 4.08 4.5 3.79 3.79 0 0 0 2-.59.75.75 0 0 1 .8 1.27 5.28 5.28 0 0 1-2.8.83z"/><path d="M28.18 18h-7.67a.75.75 0 0 1 0-1.5h7.67a.75.75 0 0 1 0 1.5zm0 2.59h-7.67a.75.75 0 0 1 0-1.5h7.67a.75.75 0 0 1 0 1.5zm-.76 25.79a6 6 0 0 1 0-12 5.31 5.31 0 0 1 2.92.88.75.75 0 1 1-.82 1.25 3.8 3.8 0 0 0-2.1-.64 4.52 4.52 0 0 0 0 9 3.79 3.79 0 0 0 2-.59.75.75 0 0 1 .8 1.27 5.28 5.28 0 0 1-2.8.83z"/><path d="M28.18 40.09h-7.67a.75.75 0 1 1 0-1.5h7.67a.75.75 0 1 1 0 1.5zm0 2.63h-7.67a.75.75 0 1 1 0-1.5h7.67a.75.75 0 1 1 0 1.5zm-.76 25.16a6 6 0 0 1 0-12 5.31 5.31 0 0 1 2.92.88.75.75 0 1 1-.82 1.24 3.8 3.8 0 0 0-2.1-.64 4.52 4.52 0 0 0 0 9 3.79 3.79 0 0 0 2-.59.75.75 0 0 1 .8 1.27 5.28 5.28 0 0 1-2.8.84z"/><path d="M28.18 61.59h-7.67a.75.75 0 1 1 0-1.5h7.67a.75.75 0 1 1 0 1.5zm0 2.63h-7.67a.75.75 0 1 1 0-1.5h7.67a.75.75 0 1 1 0 1.5z"/><path d="M64.5 6v68h-49V6h49M67 2H13a1.5 1.5 0 0 0-1.5 1.5v73A1.5 1.5 0 0 0 13 78h54a1.5 1.5 0 0 0 1.5-1.5v-73A1.5 1.5 0 0 0 67 2z"/><path d="M57.18 19H35.55a.75.75 0 0 1 0-1.5h21.63a.75.75 0 0 1 0 1.5zm0 21.25H35.55a.75.75 0 0 1 0-1.5h21.63a.75.75 0 0 1 0 1.5zm0 22.38H35.55a.75.75 0 0 1 0-1.5h21.63a.75.75 0 0 1 0 1.5z"/></symbol><symbol id="service-and-maintenance-alt" viewBox="0 0 80 80"><title>service-and-maintenance-alt</title><path d="M69.09 54.39l-.09-.07-.08-.07-1.41-1.31C64 49.69 54.73 41 48.93 35.53c-1.73-1.64-4.1-3.9-4.81-4.63a3.62 3.62 0 0 1-.92-2.46 16.2 16.2 0 0 1 .47-3.62l.08-.39a19.3 19.3 0 0 0 .58-4.43v-.07a5.67 5.67 0 0 0-1.44-3.79l-.06-.14h-.06l-7.2-7.33-.07-.07a4.51 4.51 0 0 0-1.74-1 7.11 7.11 0 0 0-2.23-.28 17.14 17.14 0 0 0-5.31.98l-6.52 2.76 2.83 2.83 5.68 5.65a.75.75 0 0 1 .21.68l-1.05 5.08a.75.75 0 0 1-.59.58L21.35 27l-6.85-6.8-2-2L9.75 24c-.18.42-.34.81-.48 1.18a14 14 0 0 0-1 5 5 5 0 0 0 1.37 3.52l8 8.17A4.74 4.74 0 0 0 19.5 43h.05a7 7 0 0 0 2.34.29 22.05 22.05 0 0 0 4.11-.64l.33-.07a18.74 18.74 0 0 1 3.34-.51 4.41 4.41 0 0 1 1.41.16 2.29 2.29 0 0 1 .93.54L43.29 55.1C49.14 61.62 53.73 66.74 55 68a9.4 9.4 0 0 0 13.72.05 9.61 9.61 0 0 0 3-7.15 9.81 9.81 0 0 0-2.63-6.51zm-3.15 10.79a5.41 5.41 0 0 1-8 .07C56.6 64 51.35 58.09 46.24 52.4L34.91 40a6.28 6.28 0 0 0-2.66-1.61 8.4 8.4 0 0 0-2.69-.33 24.26 24.26 0 0 0-4.4.66 19.76 19.76 0 0 1-3.38.54 3.13 3.13 0 0 1-1-.1.82.82 0 0 1-.38-.16l-7.92-8.11s-.17-.19-.19-.84A10.08 10.08 0 0 1 13 26.6c.12-.34.26-.66.39-1l1.31-3.09L20.2 28a1.61 1.61 0 0 0 1.13.47h.31l5.42-1.08a2.25 2.25 0 0 0 1.76-1.75l1.05-5.07a2.24 2.24 0 0 0-.62-2.05l-5.15-5.2 3.44-1.24a14 14 0 0 1 3.93-.89 3.14 3.14 0 0 1 1 .1.55.55 0 0 1 .26.13l7.2 7.33c.26.29.38.52.42 1.33a17 17 0 0 1-.51 3.54 21.48 21.48 0 0 0-.63 4.85 7.51 7.51 0 0 0 2.06 5.22c.66.68 2.47 2.4 4.91 4.73 7.06 6.71 19.22 18 20 18.73a5.81 5.81 0 0 1 1.51 3.78 5.62 5.62 0 0 1-1.75 4.25z"/><path d="M64.58 59.44a3.22 3.22 0 0 0-2.78-1.61 3.21 3.21 0 1 0 2.78 1.61z"/></symbol><symbol id="service-and-maintenance-small" viewBox="0 0 80 80"><title>service-maintenance-small</title><path d="M64.76 53l-.06-.06-.06-.06-1.2-1.11C60.46 49 52.54 41.64 47.6 37c-1.47-1.39-3.49-3.32-4.1-3.94a3.08 3.08 0 0 1-.78-2.09 13.79 13.79 0 0 1 .4-3.08l.07-.34a16.43 16.43 0 0 0 .5-3.81v-.06a4.83 4.83 0 0 0-1.22-3.23l-.05-.06-.05-.05-6.13-6.24-.1-.1a3.84 3.84 0 0 0-1.48-.83 6.05 6.05 0 0 0-1.89-.24 14.59 14.59 0 0 0-4.41.94l-5.55 2.35 7.17 7.3a.53.53 0 0 1 .14.48l-.9 4.32a.53.53 0 0 1-.41.41l-4.6.92-7.51-7.32-2.37 4.93c-.16.36-.29.69-.41 1a12 12 0 0 0-.92 4.13 4.27 4.27 0 0 0 1.17 3l6.8 7a4 4 0 0 0 1.58.95 5.94 5.94 0 0 0 2 .25 18.77 18.77 0 0 0 3.54-.59l.28-.06a16 16 0 0 1 2.84-.43 3.75 3.75 0 0 1 1.2.14 2 2 0 0 1 .79.46l9.6 10.48c5 5.55 8.89 9.91 9.94 11a8 8 0 0 0 11.67 0A8.18 8.18 0 0 0 67 58.54 8.35 8.35 0 0 0 64.76 53zm-2.69 9.18a4.6 4.6 0 0 1-6.85.06c-1.08-1.13-5.55-6.11-9.89-11l-9.66-10.46a5.34 5.34 0 0 0-2.27-1.37 7.15 7.15 0 0 0-2.29-.28 20.66 20.66 0 0 0-3.75.57 16.81 16.81 0 0 1-2.88.46 2.67 2.67 0 0 1-.85-.09.7.7 0 0 1-.32-.19L16.57 33s-.15-.16-.17-.72a8.58 8.58 0 0 1 .63-2.9c.1-.29.22-.57.33-.83L18.44 26l4.62 4.61a1.48 1.48 0 0 0 1 .43h.25L29 30.1a2 2 0 0 0 1.59-1.58l.9-4.32a2 2 0 0 0-.55-1.85L26.58 18l2.81-1a11.91 11.91 0 0 1 3.35-.76 2.68 2.68 0 0 1 .81.08.47.47 0 0 1 .22.11l6.13 6.24c.22.25.32.44.36 1.13a14.49 14.49 0 0 1-.43 3 18.28 18.28 0 0 0-.51 4.2 6.4 6.4 0 0 0 1.76 4.44c.56.58 2.1 2 4.18 4 6 5.71 16.36 15.3 17.05 15.95a5 5 0 0 1 1.29 3.22 4.78 4.78 0 0 1-1.52 3.58z"/><path d="M58.56 55.71a3 3 0 1 0 2.56 1.48 3 3 0 0 0-2.56-1.48zm.73 4.21a1.45 1.45 0 1 1 .53-2 1.45 1.45 0 0 1-.54 2z"/></symbol><symbol id="service-and-maintenance" viewBox="0 0 80 80"><title>service-and-maintenance</title><path d="M69.09 55.28l-.09-.07-.08-.07-1.41-1.31c-3.5-3.25-12.81-11.9-18.6-17.41-1.73-1.64-4.1-3.9-4.81-4.63a3.62 3.62 0 0 1-.92-2.46 16.2 16.2 0 0 1 .47-3.62l.08-.39a19.3 19.3 0 0 0 .59-4.47v-.07A5.67 5.67 0 0 0 42.89 17l-.06-.07-.06-.06-7.2-7.33-.07-.07a4.51 4.51 0 0 0-1.74-1 7.11 7.11 0 0 0-2.23-.28 17.14 17.14 0 0 0-5.18 1.11L19.7 12l2.83 2.83 5.68 5.65a.75.75 0 0 1 .21.68l-1.05 5.07a.75.75 0 0 1-.59.58l-5.42 1.08-6.86-6.8-2-2-2.75 5.83c-.18.42-.34.81-.48 1.18a14 14 0 0 0-1 5 5 5 0 0 0 1.37 3.52l8 8.17a4.74 4.74 0 0 0 1.86 1.12h.05a7 7 0 0 0 2.34.29 22 22 0 0 0 4.11-.66l.33-.07a18.75 18.75 0 0 1 3.34-.47 4.41 4.41 0 0 1 1.41.16 2.29 2.29 0 0 1 .93.54L43.29 56C49.14 62.51 53.73 67.63 55 68.92a9.4 9.4 0 0 0 13.68.08 9.61 9.61 0 0 0 3-7.15 9.81 9.81 0 0 0-2.59-6.57zm-3.15 10.79a5.41 5.41 0 0 1-8 .07c-1.34-1.3-6.59-7.14-11.7-12.86L34.91 40.91a6.28 6.28 0 0 0-2.66-1.61 8.4 8.4 0 0 0-2.69-.3 24.26 24.26 0 0 0-4.4.66 19.75 19.75 0 0 1-3.38.54 3.13 3.13 0 0 1-1-.1.82.82 0 0 1-.38-.22l-7.92-8.11s-.17-.19-.19-.84a10.08 10.08 0 0 1 .71-3.44c.12-.34.26-.66.39-1l1.31-3.09 5.47 5.45a1.61 1.61 0 0 0 1.14.47h.26l5.42-1.08a2.25 2.25 0 0 0 1.76-1.75l1.05-5.07a2.24 2.24 0 0 0-.62-2.05l-5.08-5.16L27.54 13a14 14 0 0 1 3.93-.89 3.14 3.14 0 0 1 1 .1.55.55 0 0 1 .26.13l7.2 7.33c.26.29.38.52.42 1.33a17 17 0 0 1-.51 3.54 21.48 21.48 0 0 0-.63 4.85 7.51 7.51 0 0 0 2.06 5.22c.66.68 2.47 2.4 4.91 4.73 7.06 6.71 19.22 18 20 18.73a5.81 5.81 0 0 1 1.51 3.78 5.62 5.62 0 0 1-1.75 4.22z"/><path d="M61.8 60.21a1.71 1.71 0 1 1-.85.23 1.71 1.71 0 0 1 .85-.23m0-1.5a3.21 3.21 0 1 0 2.78 1.61 3.21 3.21 0 0 0-2.78-1.61z"/></symbol><symbol id="shopping" viewBox="0 0 80 80"><path fill-rule="evenodd" d="M73.203 51.186c5.129-30.972 5.129-29.072 4.372-30.022-.854-.95 3.039-.664-58.328-.664l-1.615-7.978a1.943 1.943 0 0 0-1.9-1.522H3.854c-2.472 0-2.472 3.8 0 3.8h10.353l1.614 7.978c.096.286 5.603 28.122 5.7 28.404.096.95.95 1.614 1.9 1.614h42.086l2.85 5.7h-1.804c-2.564-2.564-6.746-2.564-9.31 0l-24.511.004c-4.179-4.086-11.303-1.14-11.303 4.75a6.611 6.611 0 0 0 6.65 6.65c3.989 0 7.125-3.515 6.553-7.6h20.522c-.571 4.085 2.66 7.6 6.553 7.6 3.99 0 7.125-3.515 6.554-7.6 2.946 0 3.8.189 4.56-.95.761-1.236.286-1.522-3.324-8.55h1.807c.95 0 1.71-.665 1.9-1.615v.001zM30.93 63.25c0 1.615-1.236 2.85-2.85 2.85s-2.85-1.235-2.85-2.85c0-3.703 5.7-3.8 5.7 0zm33.725 0c0 1.615-1.236 2.85-2.85 2.85s-2.85-1.235-2.85-2.85c0-3.703 5.7-3.8 5.7 0zM24.943 49l-4.94-24.7h53.865L69.783 49h-44.84zm23.086-21.375v19c0 1.236-1.9 1.236-1.9 0v-19c0-.571.378-.95.95-.95.571 0 .95.379.95.95zm-13.3 18.903c.19 1.236-1.71 1.522-1.9.286l-2.85-19c-.19-1.236 1.71-1.521 1.9-.286l2.85 19zm29.45-18.807l-2.85 19c-.19 1.236-2.09.95-1.9-.285l2.85-19c.096-.475.571-.854 1.046-.761.568.096.95.571.854 1.046z"/></symbol><symbol id="star-empty" viewBox="0 0 52 50"><path d="M41.3 50c-.4 0-.8-.1-1.2-.4l-14-7.4-14 7.4c-.5.3-.9.4-1.2.4-.2 0-.7 0-1-.5-.2-.3-.3-.7-.3-1.1 0-.1 0-.3.1-.6L12.2 32 .8 20.9c-.6-.6-.8-1.1-.8-1.5C0 18.2 1.3 18 1.8 18l15.7-2.3 7-14.3C24.6 1 25.1 0 26 0s1.4.9 1.5 1.3l7 14.3 15.7 2.3c.5.1 1.7.3 1.7 1.4 0 .5-.3 1-.8 1.5L39.8 32l2.7 15.8v.6c0 .4-.1.8-.3 1.1-.3.5-.8.5-.9.5zm-30.6-2zM26 39.9l14.5 7.7-2.8-16.2 11.7-11.5-16.2-2.4L26 2.7l-7.2 14.7-16.2 2.4 11.7 11.5-2.8 16.2L26 39.9zm24-20.7z"/></symbol><symbol id="star-half" viewBox="0 0 52 50"><path d="M52 19.4c0-1.2-1.3-1.4-1.7-1.4l-15.7-2.3-7-14.3C27.4.9 26.9 0 26 0c-.2 0-.3 0-.4.1h-.1c-.6.3-.9.9-1 1.2l-7 14.3-15.7 2.3c-.4.1-1.3.2-1.6.9v.1c-.2.1-.2.3-.2.5 0 .3.1.7.4 1.1.1.1.2.3.3.4L12.2 32 9.7 46.7l-.2 1.1c0 .3-.1.5-.1.6 0 .2 0 .3.1.5v.1c.1.2.1.4.2.5.1.1.1.2.2.2 0 0 .1 0 .1.1 0 0 .1.1.2.1h.6c.4 0 .8-.1 1.2-.4l14-7.4 14 7.4c.4.3.9.4 1.2.4.2 0 .6 0 1-.5.2-.3.3-.7.3-1.1v-.6L39.8 32l11.3-11.2c.6-.5.9-1 .9-1.4zM37.7 31.3l2.8 16.2L26 39.9V2.7l7.2 14.7 16.2 2.4-11.7 11.5z"/></symbol><symbol id="star" viewBox="0 0 30 32"><path d="M29.714 11.554q0 .393-.464.857l-6.482 6.321 1.536 8.929q.018.125.018.357 0 .375-.188.634t-.545.259q-.339 0-.714-.214l-8.018-4.214-8.018 4.214q-.393.214-.714.214-.375 0-.563-.259t-.188-.634q0-.107.036-.357l1.536-8.929-6.5-6.321Q0 11.929 0 11.554q0-.661 1-.821l8.964-1.304 4.018-8.125q.339-.732.875-.732t.875.732l4.018 8.125 8.964 1.304q1 .161 1 .821z"/></symbol><symbol id="technical-specifications" viewBox="0 0 80 80"><title>technical-specifications</title><path d="M55.75 26.07H31.44a.75.75 0 0 1 0-1.5h24.31a.75.75 0 0 1 0 1.5zm0 14.68H31.44a.75.75 0 0 1 0-1.5h24.31a.75.75 0 0 1 0 1.5zM23.19 27.32h-2a2 2 0 0 1 0-4h2a2 2 0 0 1 0 4zm0 14.68h-2a2 2 0 0 1 0-4h2a2 2 0 0 1 0 4zm0 14.57h-2a2 2 0 0 1 0-4h2a2 2 0 0 1 0 4zM61 66.53h-.18A5.79 5.79 0 0 1 61.06 55h.09a5.79 5.79 0 0 1 5.51 5.92A5.86 5.86 0 0 1 64.81 65 5.49 5.49 0 0 1 61 66.53zm0-10.07a4.29 4.29 0 0 0-.09 8.54 3.92 3.92 0 0 0 2.88-1.1 4.36 4.36 0 0 0 1.37-3.07 4.28 4.28 0 0 0-4-4.39z"/><path d="M77.5 61l-3-2.32-.18-.75-.17-.71 1.59-3.38a2 2 0 0 0-.23-2.07c-.84-1.09-1.18-1.5-1.75-2.21l-.84-1a2 2 0 0 0-2-.68l-3.47.84-.39-.19V3.5A1.5 1.5 0 0 0 65.57 2h-54a1.5 1.5 0 0 0-1.5 1.5v73a1.5 1.5 0 0 0 1.5 1.5h54.16a2 2 0 0 0 1-.18c1.26-.6 1.71-.83 2.51-1.25l1.18-.57a2 2 0 0 0 1.08-1.81l-.05-3.75.13-.17c.26-.33.49-.63.74-1l3.51-.77a2 2 0 0 0 1.54-1.5c.22-1 .33-1.51.44-2.05s.21-1 .42-2A2 2 0 0 0 77.5 61zM50.7 74H14.07V6h49v37.52a1.94 1.94 0 0 0-.26 0h-4A2 2 0 0 0 57 44.67l-1.55 3.45-1.18.59-3.58-.84a2 2 0 0 0-2 .73l-.92 1.18c-.48.62-.83 1.06-1.6 2.11a2 2 0 0 0-.19 2.06l.06.13h-14.6a.75.75 0 0 0 0 1.5H46.7l.85 1.75-.16.75-.15.71L44.49 61a2 2 0 0 0-.68 2l.91 4a2 2 0 0 0 1.52 1.51l3.58.79c.3.38.57.73.88 1.13zm23.18-9.86l-.15.72-3 .66a2 2 0 0 0-1.21.81c-.39.57-.71 1-1.07 1.43l-.58.75a2 2 0 0 0-.41 1.24v3.21h-.06l-1.24.63-2.42-2a2 2 0 0 0-1.27-.46H59.7a2 2 0 0 0-1.29.47l-2.36 2-1.35-.6v-3.2a2 2 0 0 0-.41-1.21l-.15-.2c-.6-.79-1-1.34-1.66-2.11a2 2 0 0 0-1.12-.68l-3-.67-.36-1.58 2.33-1.91a2 2 0 0 0 .68-1.1c.13-.55.22-1 .31-1.45s.18-.85.3-1.37a2 2 0 0 0-.15-1.32L50 53.29l.81-1.05.14-.18 3 .71a2 2 0 0 0 1.32-.14l.28-.13c.78-.37 1.45-.69 2.31-1.17a2 2 0 0 0 .86-.94l1.3-2.89h1.46l1.35 2.86a2.07 2.07 0 0 0 .92.94c1 .5 1.61.83 2.63 1.29a2 2 0 0 0 1.29.12l2.97-.71.05.06.93 1.15-1.37 2.9a2 2 0 0 0-.14 1.3c.12.54.23 1 .34 1.43s.21.86.33 1.39a2 2 0 0 0 .72 1.13l2.54 2z"/></symbol><symbol id="test-ride-small" viewBox="0 0 80 80"><title>test-ride-small</title><path d="M62.4 38.72a22.44 22.44 0 0 0-44.8 0h2.47A27.81 27.81 0 0 0 34.41 34 9.91 9.91 0 0 1 40 31.93 9.92 9.92 0 0 1 45.59 34a27.81 27.81 0 0 0 14.35 4.71m.06-1.16a26.69 26.69 0 0 1-13.77-4.5A11 11 0 0 0 40 30.79a11 11 0 0 0-6.24 2.26A26.69 26.69 0 0 1 20 37.55h-1.15a21.3 21.3 0 0 1 42.32 0M38.54 57.27v-7.82a1.74 1.74 0 0 0-1.13-1.63 7.54 7.54 0 0 1-4.71-5.19 1.74 1.74 0 0 0-1.7-1.31H17.6a22.44 22.44 0 0 0 20.94 21.1v-5.15zm-1.14 3.9a21.28 21.28 0 0 1-18.56-18.71H31a.6.6 0 0 1 .58.45 8.68 8.68 0 0 0 5.42 6 .59.59 0 0 1 .38.56zm23.37-19.85H49a1.74 1.74 0 0 0-1.68 1.31 7.54 7.54 0 0 1-4.71 5.19 1.74 1.74 0 0 0-1.13 1.63v12.97a22.44 22.44 0 0 0 20.92-21.1h-1.63zm.39 1.14A21.34 21.34 0 0 1 42.6 61.17V49.45a.59.59 0 0 1 .38-.56 8.68 8.68 0 0 0 5.42-6 .6.6 0 0 1 .58-.45h11.79"/><path d="M40 35.45a4.76 4.76 0 1 0 4.76 4.76A4.76 4.76 0 0 0 40 35.45zm0 8.37a3.61 3.61 0 1 1 3.61-3.61A3.62 3.62 0 0 1 40 43.82z"/><path d="M40 69a29 29 0 1 1 29-29 29 29 0 0 1-29 29zm0-54a25 25 0 1 0 25 25 25 25 0 0 0-25-25z"/></symbol><symbol id="test-ride" viewBox="0 0 80 80"><title>testdrive</title><path d="M69.7 38.3a29.75 29.75 0 0 0-59.4 0h3.27a36.86 36.86 0 0 0 19-6.24A13.14 13.14 0 0 1 40 29.31 13.15 13.15 0 0 1 47.41 32a36.86 36.86 0 0 0 19 6.24m.1-1.51a35.39 35.39 0 0 1-18.25-6 14.59 14.59 0 0 0-8.27-3 14.58 14.58 0 0 0-8.27 3 35.39 35.39 0 0 1-18.25 6c-.32 0-1.32 0-1.53.06a28.24 28.24 0 0 1 56.11 0M38.06 62.9V52.53a2.31 2.31 0 0 0-1.5-2.16 10 10 0 0 1-6.25-6.88 2.31 2.31 0 0 0-2.23-1.73H10.3a29.75 29.75 0 0 0 27.76 28V62.9zm-1.51 5.16a28.22 28.22 0 0 1-24.6-24.8h16.13a.8.8 0 0 1 .77.6A11.51 11.51 0 0 0 36 51.79a.79.79 0 0 1 .51.74zm30.98-26.31H51.92a2.31 2.31 0 0 0-2.23 1.73 10 10 0 0 1-6.24 6.88 2.31 2.31 0 0 0-1.5 2.16v17.2a29.75 29.75 0 0 0 27.76-28h-2.18zm.52 1.51a28.29 28.29 0 0 1-24.6 24.8V52.53a.79.79 0 0 1 .51-.74 11.51 11.51 0 0 0 7.19-7.92.79.79 0 0 1 .77-.6h15.61"/><path d="M40 34a6.3 6.3 0 1 0 6.3 6.3A6.31 6.31 0 0 0 40 34zm0 11.1a4.79 4.79 0 1 1 4.79-4.79A4.8 4.8 0 0 1 40 45.06z"/><path d="M40 77.79A37.79 37.79 0 1 1 77.79 40 37.84 37.84 0 0 1 40 77.79zm0-71.58A33.79 33.79 0 1 0 73.79 40 33.83 33.83 0 0 0 40 6.21z"/></symbol><symbol id="theft" viewBox="0 0 80 80"><title>lock</title><path d="M63.5 35.07a1 1 0 0 1 1 1v37.52a1 1 0 0 1-1 1h-47a1 1 0 0 1-1-1V36.07a1 1 0 0 1 1-1h47m0-4h-47a5 5 0 0 0-5 5v37.52a5 5 0 0 0 5 5h47a5 5 0 0 0 5-5V36.07a5 5 0 0 0-5-5z"/><path d="M57.49 34.72a2 2 0 0 1-2-2V21.3c0-.64-.25-15.88-15.49-15.88S24.51 20.25 24.51 20.88a2 2 0 0 1-4 0c0-.19.22-19.46 19.49-19.46 15.42 0 19.49 13 19.49 19.88v11.42a2 2 0 0 1-2 2zM40 55.58a7.12 7.12 0 1 1 7.12-7.12A7.13 7.13 0 0 1 40 55.58zm0-12.74a5.62 5.62 0 1 0 5.62 5.62A5.63 5.63 0 0 0 40 42.83z"/><path d="M40 69.84a.75.75 0 0 1-.75-.75V55.43a.75.75 0 1 1 1.5 0v13.66a.75.75 0 0 1-.75.75z"/></symbol><symbol id="tires" viewBox="0 0 80 80"><title>tires</title><path d="M58.71 47a19.72 19.72 0 0 0 0-14l-.11-.19a20 20 0 0 0-3.09-5.36l-.09-.15a20 20 0 0 0-12.15-7H43a18.22 18.22 0 0 0-6 0h-.27a20 20 0 0 0-12.15 7l-.09.15a20 20 0 0 0-3.09 5.36l-.11.19a19.72 19.72 0 0 0 0 14l.11.19a20 20 0 0 0 3.09 5.36l.09.15a20 20 0 0 0 12.15 7H37a18.22 18.22 0 0 0 6 0h.27a20 20 0 0 0 12.15-7l.09-.15a20 20 0 0 0 3.09-5.36l.11-.19zm-16.92 1.69v7.2a15.06 15.06 0 0 1-3.58 0v-7.2a3.21 3.21 0 0 0-1.63-2.76 3.26 3.26 0 0 0-1.65-.45 3.13 3.13 0 0 0-1.56.42l-6.22 3.59a16 16 0 0 1-1.8-3.09l6.23-3.6a3.27 3.27 0 0 0 0-5.59l-6.23-3.6a16 16 0 0 1 1.8-3.09l6.22 3.59a3.13 3.13 0 0 0 1.56.42 3.29 3.29 0 0 0 1.67-.47 3.2 3.2 0 0 0 1.61-2.74v-7.2a15.06 15.06 0 0 1 3.58 0v7.2a3.21 3.21 0 0 0 1.63 2.76 3.27 3.27 0 0 0 1.65.45 3.13 3.13 0 0 0 1.56-.42l6.22-3.59a16 16 0 0 1 1.8 3.09l-6.23 3.6a3.27 3.27 0 0 0 0 5.59l6.23 3.6a16 16 0 0 1-1.8 3.09l-6.22-3.59a3.13 3.13 0 0 0-1.56-.42 3.29 3.29 0 0 0-1.67.47 3.2 3.2 0 0 0-1.61 2.74zM56 40a15.92 15.92 0 0 1-.8 5l-6-3.48a1.69 1.69 0 0 1-.85-1.52 1.69 1.69 0 0 1 .82-1.49l6-3.48A15.92 15.92 0 0 1 56 40zm-4.11-10.67l-6 3.47a1.62 1.62 0 0 1-.81.22 1.77 1.77 0 0 1-.89-.25 1.68 1.68 0 0 1-.86-1.45v-7a16 16 0 0 1 8.56 5.01zm-15.18-5v7a1.68 1.68 0 0 1-.86 1.45 1.76 1.76 0 0 1-.89.25 1.62 1.62 0 0 1-.81-.22l-6-3.47a16 16 0 0 1 8.56-5zM24 40a15.92 15.92 0 0 1 .8-5l6 3.48a1.69 1.69 0 0 1 .85 1.52 1.69 1.69 0 0 1-.82 1.49L24.8 45a15.92 15.92 0 0 1-.8-5zm4.11 10.67l6-3.47a1.62 1.62 0 0 1 .81-.22 1.76 1.76 0 0 1 .89.25 1.68 1.68 0 0 1 .86 1.45v7a16 16 0 0 1-8.56-5.01zm15.18 5v-7a1.68 1.68 0 0 1 .86-1.45 1.77 1.77 0 0 1 .89-.25 1.62 1.62 0 0 1 .81.22l6 3.47a16 16 0 0 1-8.56 5z"/><path d="M40 35.66A4.34 4.34 0 1 0 44.34 40 4.34 4.34 0 0 0 40 35.66zm0 7.17A2.84 2.84 0 1 1 42.84 40 2.84 2.84 0 0 1 40 42.84z"/><path d="M40 11.5A28.5 28.5 0 1 0 68.5 40 28.5 28.5 0 0 0 40 11.5zm0 53A24.5 24.5 0 1 1 64.5 40 24.53 24.53 0 0 1 40 64.5z"/></symbol><symbol id="top-speed" viewBox="0 0 80 80"><title>top-speed</title><path d="M40.16 69a29.05 29.05 0 1 1 4.07-57.82 2 2 0 1 1-.56 4 25.05 25.05 0 1 0 21.27 28.31 2 2 0 0 1 4 .56A29.1 29.1 0 0 1 40.16 69z"/><path d="M58.43 22.25a.75.75 0 0 0-1-.08l-14.8 11.27a7 7 0 1 0 3.9 3.68l11.92-13.86a.75.75 0 0 0-.02-1.01zM40.13 43a3 3 0 1 1 3-3 3 3 0 0 1-3 3zm8.24-21.27l-6.54 6.54a1.48 1.48 0 0 1-1.5.37c-2.36-.77-9.61-1.87-17.76 9.44a1.5 1.5 0 0 1-2.66-1.28c2.32-7.8 8.89-18.73 27.47-17.63a1.51 1.51 0 0 1 .99 2.56z"/></symbol><symbol id="torque" viewBox="0 0 80 80"><title>torque</title><path d="M53.63 69.58a3.12 3.12 0 0 1-2.7-1.58l-1.48-2.5a13.48 13.48 0 0 1-1.93-.26L46 66.68l-.53.51a3.17 3.17 0 0 1-4.33.27l-4.44-3.35a3.13 3.13 0 0 1-.91-4.21l.32-.58 1-1.88a11.5 11.5 0 0 1-1-2.46L34 54.32l-.57-.18a3.13 3.13 0 0 1-2.25-3.6l.88-5.63a3.13 3.13 0 0 1 3.17-2.72h2.91a13.64 13.64 0 0 1 1.21-1.54c-.23-.95-.45-1.9-.67-2.85a3.19 3.19 0 0 1 1.86-3.66L46 31.92a3.1 3.1 0 0 1 3.87 1.34l.45.75 1 1.75a13.92 13.92 0 0 1 1.94.26l1.23-1.19.77-.74a3.15 3.15 0 0 1 4.35-.28l4.42 3.34a3.11 3.11 0 0 1 .97 4.23l-.61 1.12-.72 1.33a11.65 11.65 0 0 1 1 2.46l1.33.41 1.28.4a3.12 3.12 0 0 1 2.32 3.73l-.87 5.58a3.17 3.17 0 0 1-2 2.48l-.31.14h-.33a5.92 5.92 0 0 1-.68 0h-2.74a13.42 13.42 0 0 1-1.2 1.54l.67 2.84a3.13 3.13 0 0 1-1.88 3.68l-2 .82-3.3 1.33a3.52 3.52 0 0 1-1.33.34zm-3.32-8.05a2.44 2.44 0 0 1 2.17 1.25L54 65.37l2.71-1.1 1.35-.55-.7-3a2.4 2.4 0 0 1 .7-2.39 9.62 9.62 0 0 0 1.64-2.11 2.35 2.35 0 0 1 2.11-1.18h3.08l.68-4.34-.75-.24-2.21-.69A2.28 2.28 0 0 1 61 48a7.69 7.69 0 0 0-1.16-2.87 2.26 2.26 0 0 1-.09-2.42l1.17-2.14.33-.61-3.5-2.64-.38.37-1.85 1.8a2.33 2.33 0 0 1-2.28.6 9.39 9.39 0 0 0-2.68-.37 2.42 2.42 0 0 1-2.16-1.25l-1.44-2.43-.09-.16-4.07 1.65c.23 1 .45 1.93.69 2.9a2.47 2.47 0 0 1-.7 2.46A9.56 9.56 0 0 0 41.11 45 2.37 2.37 0 0 1 39 46.18h-3.1l-.67 4.33 3 .92a2.31 2.31 0 0 1 1.65 1.83A7.55 7.55 0 0 0 41 56.09a2.33 2.33 0 0 1 .09 2.49c-.49.89-1 1.77-1.45 2.66v.05l3.51 2.65.12-.12 2.1-2.05a2.31 2.31 0 0 1 2.3-.6 10.54 10.54 0 0 0 2.63.37zm11-1.7zm.52-.74zm-24.12-.78zm27.24-11zM63.79 46zm-.55-1.35zm-.08-1.72zM39 42.18zm12.8-5.72zm-5.34-1.15z"/><path d="M50.51 46a5 5 0 1 1-1.88.37 5 5 0 0 1 1.88-.37m0-1.5a6.5 6.5 0 1 0 6 4.06 6.48 6.48 0 0 0-6-4.06zm-20.4-2.57a2.89 2.89 0 0 1-2.38-1.3l-1.19-1.69a11 11 0 0 1-1.16-.07l-.93 1-.41.46a2.91 2.91 0 0 1-3.94.55l-3.71-2.39a2.88 2.88 0 0 1-1.13-3.79l.27-.6.55-1.23a9.56 9.56 0 0 1-.77-1.57l-1.42-.3-.55-.13A2.88 2.88 0 0 1 11 27.74l.36-4.5a2.92 2.92 0 0 1 2.72-2.72l2.09-.16a11.36 11.36 0 0 1 .65-1l-.63-2a3 3 0 0 1 1.47-3.5l4.19-2.08a2.87 2.87 0 0 1 3.66 1l.44.63.77 1.09a11.47 11.47 0 0 1 1.17.07l.77-.87.55-.62a2.92 2.92 0 0 1 4-.55l3.7 2.38a2.89 2.89 0 0 1 1.09 3.8l-.81 1.81a9.53 9.53 0 0 1 .81 1.56l1 .23.9.21a2.89 2.89 0 0 1 2.37 3.25l-.36 4.46a2.94 2.94 0 0 1-1.63 2.41l-.29.16-.32.05a5.32 5.32 0 0 1-.56.08l-2 .15a11 11 0 0 1-.65 1l.64 2a2.89 2.89 0 0 1-1.48 3.52l-1.62.75-2.51 1.24a3.16 3.16 0 0 1-1.38.34zm-5.7-3.21zm1.59-.55zm1.36-3.26a2.36 2.36 0 0 1 2 1l1.17 1.67 1.74-.86.73-.32-.62-2a2.33 2.33 0 0 1 .49-2.33A7.27 7.27 0 0 0 34 30.44a2.27 2.27 0 0 1 1.93-1.28L38 29l.22-2.76h-.13l-1.92-.44a2.24 2.24 0 0 1-1.71-1.63 5.62 5.62 0 0 0-1-2.06 2.24 2.24 0 0 1-.27-2.32l.81-1.98-2.33-1.5-1.37 1.54a2.23 2.23 0 0 1-2.17.74 7.27 7.27 0 0 0-2-.12 2.35 2.35 0 0 1-2.18-1l-1.16-1.66L20.31 17q.3 1 .61 1.91a2.36 2.36 0 0 1-.5 2.39 7.2 7.2 0 0 0-1.1 1.7 2.27 2.27 0 0 1-1.93 1.29l-2.09.15-.22 2.76 2 .47a2.26 2.26 0 0 1 1.72 1.65 5.49 5.49 0 0 0 1 2 2.25 2.25 0 0 1 .27 2.39l-.86 1.9 2.33 1.5L23 35.54a2.26 2.26 0 0 1 2.18-.75 7.2 7.2 0 0 0 2 .13zm5.9 2.35zm-16.57-3.47zm19.48-.57zm1.38-1zm-21.31-.64zM15 30.34zm22-8.48zm-21.31-.65zm11.5-6zm1.66-.48zm-3.1-.18z"/><path d="M26.65 32a5.25 5.25 0 1 1 2.35-.58 5.26 5.26 0 0 1-2.35.58zm0-9A3.75 3.75 0 1 0 30 25.05 3.73 3.73 0 0 0 26.64 23z"/></symbol><symbol id="towing-weight" viewBox="0 0 80 80"><title>towing-weight</title><path d="M38.5 42.75h-21a2.25 2.25 0 0 1-2.25-2.25v-9a2.25 2.25 0 0 1 2.25-2.25h21a2.25 2.25 0 0 1 2.25 2.25v9a2.25 2.25 0 0 1-2.25 2.25zm-21-12a.75.75 0 0 0-.75.75v9a.75.75 0 0 0 .75.75h21a.75.75 0 0 0 .75-.75v-9a.75.75 0 0 0-.75-.75z"/><path d="M78 53.25h-8v-.12c.51-7.83-5.11-21.45-11.78-28.56C55.38 21.54 52.61 20 50 20H12a5.74 5.74 0 0 0-4.3 2c-6.42 7-5.56 31.4-5.54 31.63A4.79 4.79 0 0 0 6.49 58l4 .37h17.08a8.43 8.43 0 0 0 7.58 4.77 8 8 0 0 0 7.33-4.82c2.68-.1 9.28-.27 19.84-.14h.23C64.08 58 66 58 66 58a2 2 0 0 0 .45-.05 4.48 4.48 0 0 0 3.25-3.2H78a.75.75 0 0 0 0-1.5zm-39.2 3.47a4 4 0 0 1-1.64 1.86l-.14.08-.3.14a3.62 3.62 0 0 1-1.31.25 3.65 3.65 0 0 1 0-7.3 4.09 4.09 0 0 1 3.65 3.65 3.62 3.62 0 0 1-.26 1.32zM66 52.93a1.94 1.94 0 0 1-.36 1.07c-.66 0-2.09 0-3.39.17-14.17-.17-21.07.19-21.36.2a2 2 0 0 0-.45.08 5.61 5.61 0 0 0-5-4.21 5.14 5.14 0 0 0-5.1 4.61 2 2 0 0 0-1.3-.49h-18.2l-4-.37a.79.79 0 0 1-.71-.71c-.37-4.27.17-23.8 4.5-28.54A1.79 1.79 0 0 1 12 24h38c1.42 0 3.31 1.17 5.3 3.3 5.84 6.23 11.14 18.89 10.7 25.63z"/></symbol><symbol id="twitter-bird" viewBox="0 0 80 80"><title>twitter</title><path d="M67.5 21.81a3.12 3.12 0 0 0-.94-.59q.11-.39.19-.77a3.1 3.1 0 0 0-4.67-3.22A21.79 21.79 0 0 1 58.13 19a13.05 13.05 0 0 0-8.2-2.87 15.51 15.51 0 0 0-5.28 1 12.4 12.4 0 0 0-7.4 6.83 14.91 14.91 0 0 0-1.15 4.62c-4.21-1-11-3.46-15.9-9.39a3.09 3.09 0 0 0-5 .22 13.72 13.72 0 0 0-.81 12.23A3.07 3.07 0 0 0 13.36 34a14.76 14.76 0 0 0 3.84 9.45 3 3 0 0 0 0 2.18 15 15 0 0 0 5.3 6.73 15.84 15.84 0 0 1-4.91.75 19.06 19.06 0 0 1-2.59-.22 3.09 3.09 0 0 0-2.3 5.53 31.29 31.29 0 0 0 17.81 5.44 31.7 31.7 0 0 0 6.78-.74c15.39-3.33 25.51-15.91 26-32.18 1.89-1.66 4-3.79 4.88-5.54a3.09 3.09 0 0 0-.67-3.59zm-7.45 6.68l-.7.59V30c-.12 14.76-9.1 26.23-22.88 29.22a27.71 27.71 0 0 1-5.93.64A28.42 28.42 0 0 1 18.29 57a18.43 18.43 0 0 0 10-3.17l3.65-2.53-4.31-1.06a9.87 9.87 0 0 1-6.07-4.83h5.19l-5.26-3.64a9.92 9.92 0 0 1-3.94-6.39l6.24 2.64-4.44-5.92A9.44 9.44 0 0 1 18 22.76c6.75 7.42 16 9.61 19.78 10.24l2.54.41-.23-2.56a11.45 11.45 0 0 1 .84-5.29A8.5 8.5 0 0 1 46 20.88a11.54 11.54 0 0 1 3.92-.73 9 9 0 0 1 6.3 2.53l.82.81 1.12-.31a24.92 24.92 0 0 0 3.74-1.38 10.77 10.77 0 0 1-.62.89l-3.81 4.93 5.18-1.56c-.71.76-1.65 1.58-2.6 2.42zM14.47 56.85zm.67-1.63zm5.8-11zm-4.85-9.42z"/><path d="M65.84 24.87l-.09.05h.09zM17.11 21.7zm47.06-1.07h-.06.06z"/></symbol><symbol id="vans" viewBox="0 0 80 80"><title>vans</title><path d="M72.52 34.59l-5.66-2.1-.14-.06L56 24.92l-.12-.07a10.53 10.53 0 0 0-3.17-1.37h-.17c-5-1.55-39.5-.59-44.64-.19a4.82 4.82 0 0 0-4.23 3.43A58.63 58.63 0 0 0 1.16 48a4.79 4.79 0 0 0 4.32 4.35l3.62.34a8 8 0 0 0 14.63.06h33.43a8 8 0 0 0 7.3 4.77 8.43 8.43 0 0 0 7.49-5.15c1.66-.22 3.27-.45 3.27-.45h.16A4.3 4.3 0 0 0 78.94 48c.7-10.72-5.31-13.07-6.42-13.41zm-20.79-7.24a6.49 6.49 0 0 1 2 .88l7.7 5.38H43.17v-7a46.28 46.28 0 0 1 8.17.59zm-10.07-.73v7H24.55v-6.93c5.8-.1 12.06-.15 17.12-.06zM9.81 31.37l.8-4.29c2.92-.13 7.45-.27 12.44-.37v6.9H11.68a1.9 1.9 0 0 1-1.87-2.24zm6.59 22.06a3.65 3.65 0 1 1 3.65-3.65 3.66 3.66 0 0 1-3.65 3.65zm48.07 0a3.65 3.65 0 1 1 3.65-3.65 3.66 3.66 0 0 1-3.65 3.65zM75 47.78s-.22.09-.4.14c-.49.07-2.72.39-4.45.6a2 2 0 0 0-.6.18 5.14 5.14 0 0 0-10.09.18 2 2 0 0 0-.8-.18H22.28a2 2 0 0 0-.82.18 5.14 5.14 0 0 0-10.12 0 2 2 0 0 0-.77-.16h-.73l-4-.37a.79.79 0 0 1-.72-.71 54.57 54.57 0 0 1 2.36-19.85.8.8 0 0 1 .7-.57l.89-.06-.73 3.94a3.4 3.4 0 0 0 3.34 4h51.91l.87.61a4.77 4.77 0 0 0 1 .52l5.72 2.12.18.06c.18.06 4.11 1.3 3.64 9.37z"/></symbol><symbol id="vehicle-commercial" viewBox="0 0 80 80"><title>vans</title><path d="M72.52 34.59l-5.66-2.1-.14-.06L56 24.92l-.12-.07a10.53 10.53 0 0 0-3.17-1.37h-.17c-5-1.55-39.5-.59-44.64-.19a4.82 4.82 0 0 0-4.23 3.43A58.63 58.63 0 0 0 1.16 48a4.79 4.79 0 0 0 4.32 4.35l3.62.34a8 8 0 0 0 14.63.06h33.43a8 8 0 0 0 7.3 4.77 8.43 8.43 0 0 0 7.49-5.15c1.66-.22 3.27-.45 3.27-.45h.16A4.3 4.3 0 0 0 78.94 48c.7-10.72-5.31-13.07-6.42-13.41zm-20.79-7.24a6.49 6.49 0 0 1 2 .88l7.7 5.38H43.17v-7a46.28 46.28 0 0 1 8.17.59zm-10.07-.73v7H24.55v-6.93c5.8-.1 12.06-.15 17.12-.06zM9.81 31.37l.8-4.29c2.92-.13 7.45-.27 12.44-.37v6.9H11.68a1.9 1.9 0 0 1-1.87-2.24zm6.59 22.06a3.65 3.65 0 1 1 3.65-3.65 3.66 3.66 0 0 1-3.65 3.65zm48.07 0a3.65 3.65 0 1 1 3.65-3.65 3.66 3.66 0 0 1-3.65 3.65zM75 47.78s-.22.09-.4.14c-.49.07-2.72.39-4.45.6a2 2 0 0 0-.6.18 5.14 5.14 0 0 0-10.09.18 2 2 0 0 0-.8-.18H22.28a2 2 0 0 0-.82.18 5.14 5.14 0 0 0-10.12 0 2 2 0 0 0-.77-.16h-.73l-4-.37a.79.79 0 0 1-.72-.71 54.57 54.57 0 0 1 2.36-19.85.8.8 0 0 1 .7-.57l.89-.06-.73 3.94a3.4 3.4 0 0 0 3.34 4h51.91l.87.61a4.77 4.77 0 0 0 1 .52l5.72 2.12.18.06c.18.06 4.11 1.3 3.64 9.37z"/></symbol><symbol id="vehicle-consumer" viewBox="0 0 80 80"><title>models</title><path d="M76.27 41.84a1.79 1.79 0 0 1-.54-.91 3.33 3.33 0 0 0-.7-1.52c-3.88-4.69-15.79-4.9-15.91-4.9a6.35 6.35 0 0 1-3.1-.58l-.29-.21a82.61 82.61 0 0 0-8.08-4.62c-4.92-2.46-9.64-2.46-20-2.46a150.21 150.21 0 0 0-16.87 1 3 3 0 0 0-2 1.18 3 3 0 0 0-.59 1.93c-1 1.05-3.08 3.75-4.26 5.31a3.47 3.47 0 0 0-.71 2.11v3.13l-.1.1a3.47 3.47 0 0 0-1 2.46v3.51a3.49 3.49 0 0 0 .1.84l.14.57a3.47 3.47 0 0 0 1.81 2.32 18.42 18.42 0 0 0 3.17 1.13 8.43 8.43 0 0 0 7.86 5.32 8.54 8.54 0 0 0 7.54-4.62h32.72A8.53 8.53 0 0 0 63 57.54a8.7 8.7 0 0 0 7.75-4.85c.71-.07 1.46-.17 2.24-.28l2.13-.41A3.51 3.51 0 0 0 78 48.56v-1.09c0-1.38 0-3.94-1.73-5.63zm-23.18-5.07l-18.32-.56-.84-5.54c5.71.09 8.85.46 11.95 2a82.43 82.43 0 0 1 7.21 4.1zm-20.68-6.11l.83 5.51-13.07-.4a3.77 3.77 0 0 1-2.22-1.07 1.06 1.06 0 0 1-.16-.87 11.65 11.65 0 0 1 1.11-2.91c2.57-.16 5.55-.27 8.77-.27zM14.75 52.57a3.65 3.65 0 1 1 3.65-3.65 3.65 3.65 0 0 1-3.65 3.65zm47.75 0a3.65 3.65 0 1 1 3.65-3.65 3.65 3.65 0 0 1-3.65 3.65zM74 48.14l-1.61.31c-1.19.18-2.28.3-3.25.36l-1.46.09a5.15 5.15 0 0 0-10.3 0H19.91a5.14 5.14 0 0 0-10.27-.29l-.32-.07a15.69 15.69 0 0 1-3.19-1L6 47.31v-3.22l.1-.1a3.48 3.48 0 0 0 1-2.48v-3.2c1.87-2.47 3.36-4.33 3.91-4.87a3.59 3.59 0 0 0 1-1.94c1.2-.13 2.93-.3 5-.45a11.72 11.72 0 0 0-.85 2.5 2.56 2.56 0 0 0 .41 2A5.22 5.22 0 0 0 20 37.26l13.42.41v.08l.42-.06 23 .7a14.27 14.27 0 0 0 2.27.17c4 0 10.79 1.29 12.71 3.31a5.84 5.84 0 0 0 1.61 2.84c.51.51.51 2.12.51 2.88z"/></symbol><symbol id="vehicle-second-hand" viewBox="0 0 80 80"><title>occassions</title><path d="M73.58 44.73h-1.76c-3.33-7.16-12.42-9.58-20.73-9.3a.43.43 0 0 1-.4-.22l-1.55-2.41a8 8 0 0 0-5.44-4.08 38.37 38.37 0 0 0-10-.91c-19.26 0-27.28 14-29.83 20a4.47 4.47 0 0 0 3.23 6.13l3.13.14a7.58 7.58 0 0 0 13 .24h31.83a7.53 7.53 0 0 0 6.43 3.56 7.61 7.61 0 0 0 7-4.61l1.47-.13h.15a3.56 3.56 0 0 0 2.82-2.5h.68a2.92 2.92 0 0 0 0-5.83zm-.84 2.68a1.82 1.82 0 0 1 .13.23l-.07.13c0-.13-.05-.26-.08-.39zm-39-15.6H34a34.27 34.27 0 0 1 9 .85h.16a4.32 4.32 0 0 1 2.61 2.2l1.57 2.48a4.49 4.49 0 0 0 .31.42h-14v-6zm-9.65 6a1.29 1.29 0 0 1-1.29-1.16l-.26-2.69a28.39 28.39 0 0 1 9.51-2.07v5.92zm-6 15.78a3.5 3.5 0 0 1-3.23-.29 3.2 3.2 0 1 1 3.23.29zm45.81-.72a3.49 3.49 0 0 1-3.32.87 3.2 3.2 0 1 1 3.32-.87zm2.16-3.43a4.67 4.67 0 0 0-9.16.8l-.77.06H21.41a4.68 4.68 0 0 0-9.3-.18l-4.33-.16a.47.47 0 0 1-.23-.21.45.45 0 0 1 0-.39c1.58-3.7 5.52-10.83 13.59-14.76l.22 2.19a2.78 2.78 0 0 0 2.78 2.52h25.8a4.5 4.5 0 0 0 1.27.15c14.59-.49 17.29 6.8 17.78 9.72z"/></symbol><symbol id="visit-us" viewBox="0 0 80 80"><title>visit-us</title><path d="M70.49 24.28l-31-17.57-30 17.59a2 2 0 0 0 2 3.45l3-1.75v32h14a2 2 0 0 0 0-4h-10V23.65l21-12.32 22 12.47a2 2 0 0 0 0 .22V39a2 2 0 0 0 4 0V26l3 1.71a2 2 0 0 0 2-3.48z"/><path d="M49.5 29.08a4.16 4.16 0 1 1-4.5 4.15 4.32 4.32 0 0 1 4.46-4.15m0-4A8.16 8.16 0 1 0 58 33.23a8.31 8.31 0 0 0-8.46-8.15zm.04 18.71c-7.45 0-15.7 1.42-15.7 10.27 0 6.32 1.81 16.89 7.85 16.91h15.7c6 0 7.85-10.58 7.85-16.91 0-8.84-8.25-10.27-15.7-10.27zm0 5.05a2.27 2.27 0 0 1-2-1h4.01a2.27 2.27 0 0 1-2.01 1zm.1 2.29l2.68 11.12-2.79 1.88-2.88-1.9L49 51.13zM57.34 67H41.66c-1.56 0-3.86-5.43-3.86-12.91 0-1.94 0-5.37 8.15-6.12a3.07 3.07 0 0 0 1.78 2l-2.8 13 4.57 3 4.48-3-3.08-12.86a3.17 3.17 0 0 0 2.15-2.17c8.14.75 8.15 4.18 8.15 6.12 0 7.48-2.3 12.94-3.86 12.94z"/></symbol></svg>